<svg width="207" height="87" viewBox="0 0 207 87" fill="none" xmlns="http://www.w3.org/2000/svg">
<path d="M133.497 29.8794C133.497 41.3493 128.193 47.0826 117.584 47.0826C106.976 47.0826 101.673 41.3493 101.673 29.8794V1.66059C101.673 1.33703 101.782 1.05889 102.006 0.826194C102.229 0.593494 102.512 0.477145 102.856 0.477145H106.197C106.521 0.477145 106.799 0.593494 107.032 0.826194C107.264 1.05889 107.381 1.33703 107.381 1.66059V29.8794C107.381 34.0658 108.15 37.1763 109.688 39.2096C111.228 41.243 113.859 42.2591 117.584 42.2591C121.146 42.2591 123.738 41.3039 125.358 39.3913C126.977 37.4799 127.788 34.3096 127.788 29.8794V1.66059C127.788 1.33703 127.899 1.05889 128.122 0.826194C128.345 0.593494 128.628 0.477145 128.972 0.477145H132.313C132.636 0.477145 132.915 0.593494 133.148 0.826194C133.381 1.05889 133.497 1.33703 133.497 1.66059V29.8794Z" fill="white"/>
<path d="M161.191 26.5108L156.848 10.7636C155.958 7.58783 155.492 5.93898 155.452 5.81709C155.411 5.6963 155.341 5.56555 155.239 5.42371C155.138 5.28188 155.017 5.16996 154.875 5.08907C154.733 5.00929 154.56 4.96829 154.359 4.96829C154.136 4.96829 153.938 5.01815 153.766 5.11899C153.595 5.22093 153.457 5.35169 153.357 5.51458C153.255 5.67636 152.901 6.85981 152.295 9.06382L147.465 26.5108H161.191ZM146.282 31.4275L142.303 45.7485C142.222 46.0721 142.06 46.3048 141.817 46.4466C141.574 46.5885 141.361 46.6594 141.18 46.6594H137.505C136.797 46.6594 136.443 46.3247 136.443 45.6577C136.443 45.5158 136.462 45.374 136.503 45.2332L148.012 4.78656C148.902 1.63069 151.018 0.0516533 154.359 0.0516533C157.658 0.0516533 159.754 1.60964 160.644 4.72561L172.154 45.2332C172.194 45.3141 172.214 45.456 172.214 45.6577C172.214 46.3247 171.861 46.6594 171.151 46.6594H167.478C167.215 46.6594 166.991 46.5729 166.809 46.4012C166.627 46.2294 166.343 45.4449 165.959 44.0498L162.375 31.4275H146.282Z" fill="white"/>
<path d="M187.959 22.9311L206.696 45.2936C206.897 45.4953 206.999 45.7491 206.999 46.0516C206.999 46.456 206.726 46.6588 206.18 46.6588H201.35C200.764 46.6588 200.308 46.456 199.985 46.0516L182.433 24.7207V45.4144C182.433 45.7391 182.326 46.0272 182.114 46.2787C181.901 46.5325 181.633 46.6588 181.309 46.6588H177.908C177.584 46.6588 177.315 46.538 177.102 46.2942C176.891 46.0516 176.784 45.759 176.784 45.4144V1.66116C176.784 1.35643 176.894 1.08384 177.118 0.840059C177.341 0.598494 177.624 0.4766 177.969 0.4766H181.248C181.572 0.4766 181.85 0.59406 182.083 0.826761C182.316 1.05946 182.433 1.33759 182.433 1.66116V21.7477L200.349 1.05392C200.714 0.669413 201.127 0.4766 201.594 0.4766H206.058C206.645 0.4766 206.938 0.709301 206.938 1.1747C206.938 1.39743 206.858 1.60021 206.696 1.78194L187.959 22.9311Z" fill="white"/>
<path d="M117.325 85.9737C117.325 86.3992 116.994 86.6773 116.332 86.8059C115.671 86.9344 114.709 86.9998 113.447 86.9998C110.922 86.9998 109.233 86.5166 108.381 85.5515C107.528 84.5863 107.102 82.9874 107.102 80.7523V64.4511L102.515 63.927C102.257 63.9114 102.053 63.8283 101.9 63.6754C101.748 63.5236 101.673 63.333 101.673 63.1059V61.8293C101.673 61.2819 101.969 61.0082 102.562 61.0082H107.102V56.4251C107.102 56.1514 107.185 55.9353 107.354 55.7758C107.521 55.6162 107.897 55.4899 108.483 55.399C109.068 55.3082 109.696 55.2173 110.366 55.1253H110.503C110.974 55.1253 111.21 55.3846 111.21 55.901V61.0082H116.252C116.512 61.0082 116.733 61.1002 116.914 61.2819C117.097 61.4648 117.188 61.6842 117.188 61.9423V63.5158C117.188 63.7751 117.097 63.9945 116.914 64.1774C116.733 64.3591 116.512 64.4511 116.252 64.4511H111.21V80.7523C111.21 81.9834 111.385 82.7812 111.734 83.1458C112.084 83.5104 112.754 83.6932 113.743 83.6932H116.343C116.998 83.6932 117.325 83.9148 117.325 84.3547V85.9737Z" fill="white"/>
<path d="M133.207 63.4255C133.207 63.9562 132.878 64.2233 132.224 64.2233C130.08 64.2233 127.927 64.8771 125.768 66.1835V85.7459C125.768 85.9886 125.677 86.2057 125.494 86.3952C125.311 86.5858 125.098 86.68 124.855 86.68H122.55C122.322 86.68 122.117 86.5891 121.934 86.4063C121.752 86.2246 121.66 86.0041 121.66 85.7459V61.9428C121.66 61.6691 121.747 61.4453 121.923 61.2702C122.097 61.0951 122.306 61.0076 122.55 61.0076H124.741C124.999 61.0076 125.212 61.0951 125.379 61.2702C125.547 61.4453 125.63 61.6691 125.63 61.9428V62.9235C127.76 61.4176 129.957 60.6663 132.224 60.6663C132.878 60.6663 133.207 60.9477 133.207 61.5096V63.4255Z" fill="white"/>
<path d="M151.415 81.7783V74.2543H147.969C145.369 74.2543 143.528 74.5624 142.448 75.1785C141.367 75.7946 140.828 77.0135 140.828 78.8374V79.407C140.828 80.8819 141.147 81.9567 141.785 82.6327C142.424 83.3108 143.536 83.6477 145.117 83.6477C147.048 83.6477 149.148 83.0249 151.415 81.7783ZM155.545 85.7453C155.545 86.0035 155.449 86.2251 155.26 86.4068C155.069 86.5897 154.853 86.6805 154.609 86.6805H152.442C152.198 86.6805 151.985 86.5897 151.803 86.4068C151.62 86.2251 151.529 86.0035 151.529 85.7453V84.7192C148.928 86.2395 146.524 86.9997 144.319 86.9997C141.87 86.9997 139.986 86.3658 138.672 85.096C137.354 83.8272 136.698 81.9456 136.698 79.4524V78.884C136.698 76.2833 137.56 74.3718 139.286 73.1495C141.013 71.9251 143.907 71.3134 147.969 71.3134H151.415V69.4441C151.415 67.5138 151.046 66.153 150.308 65.3629C149.57 64.5729 148.273 64.1773 146.418 64.1773C145.048 64.1773 143.777 64.215 142.607 64.2914L139.276 64.5418H139.048C138.484 64.5418 138.204 64.2914 138.204 63.7906V62.1716C138.204 61.837 138.325 61.601 138.569 61.4647C138.811 61.3273 139.701 61.161 141.238 60.9627C142.774 60.7654 144.502 60.6657 146.418 60.6657C152.502 60.6657 155.545 63.5922 155.545 69.4441V85.7453Z" fill="white"/>
<path d="M176.696 83.1233V64.587C175.495 64.3754 173.677 64.2679 171.243 64.2679C169.144 64.2679 167.608 64.884 166.635 66.1151C165.661 67.3462 165.173 69.3452 165.173 72.111V75.463C165.173 78.3053 165.656 80.342 166.622 81.5742C167.588 82.8042 169.129 83.4203 171.243 83.4203C172.703 83.4203 174.522 83.3217 176.696 83.1233ZM180.827 85.1301C180.827 85.5412 180.713 85.8293 180.485 85.9966C180.256 86.1639 179.184 86.3734 177.267 86.6227C175.35 86.8742 173.343 86.9995 171.243 86.9995C167.942 86.9995 165.417 86.0044 163.668 84.0131C161.918 82.0219 161.044 79.1718 161.044 75.463V72.111C161.044 68.3723 161.907 65.53 163.634 63.5842C165.359 61.6384 167.897 60.6655 171.243 60.6655C173.115 60.6655 174.932 60.8262 176.696 61.1453V52.4578C176.696 52.2151 176.784 52.0057 176.959 51.8317C177.134 51.6566 177.343 51.568 177.587 51.568H179.983C180.546 51.568 180.827 51.865 180.827 52.4578V85.1301Z" fill="white"/>
<path d="M202.824 72.0207V71.5864C202.824 69.0643 202.34 67.2138 201.374 66.0359C200.408 64.858 198.853 64.2685 196.708 64.2685C192.541 64.2685 190.456 66.7074 190.456 71.5864V72.0207H202.824ZM207 74.1184C207 74.8021 206.702 75.1433 206.11 75.1433H190.456V75.8049C190.456 78.4344 190.966 80.3614 191.986 81.5847C193.005 82.8081 194.655 83.4197 196.936 83.4197C197.85 83.4197 198.816 83.3976 199.835 83.3521C200.854 83.3067 201.804 83.2458 202.686 83.1704L205.264 82.8956H205.493C205.995 82.8956 206.246 83.1161 206.246 83.5571V85.1295C206.246 85.5561 206.125 85.852 205.881 86.0193C205.637 86.1867 204.592 86.3928 202.744 86.6343C200.895 86.877 198.96 87 196.936 87C193.559 87 190.946 86.0537 189.099 84.1611C187.25 82.2684 186.326 79.4838 186.326 75.8049V71.5864C186.326 68.2122 187.23 65.5494 189.041 63.5959C190.851 61.6434 193.407 60.666 196.708 60.666C199.993 60.666 202.53 61.6279 204.318 63.5493C206.105 65.473 207 68.1524 207 71.5864V74.1184Z" fill="white"/>
<path d="M79.6807 19.3363C79.0419 19.1967 78.3654 19.1236 77.6546 19.1236H48.0071C44.4828 19.1236 41.3233 21.3497 40.1422 24.6652L27.3147 60.6085C25.6534 65.2681 21.7753 68.5647 17.6665 68.8018C15.8766 68.9049 14.2154 68.4251 12.8148 67.4211C12.7959 67.4089 12.7848 67.3967 12.766 67.3846C12.1205 66.9214 11.5361 66.3385 11.0193 65.657C10.2763 64.6653 9.72181 63.5162 9.38136 62.2751C9.37581 62.2452 9.36361 62.2197 9.35696 62.1898C8.71153 59.7686 8.82687 57.0006 9.77061 54.3611L25.8486 8.78389L25.8974 8.63762H25.9029L27.9246 2.88881C32.7631 1.02166 38.0174 0 43.5091 0C58.569 0 71.8646 7.68799 79.6807 19.3363Z" fill="white"/>
<path d="M21.1549 6.19172L18.5676 13.4664H18.561L18.4944 13.6614L5.21775 50.8813L4.63332 52.5302C3.66518 55.2439 3.31141 58.0286 3.54873 60.6758C1.26645 55.4013 0 49.5804 0 43.4737C0 27.67 8.48591 13.801 21.1549 6.19172Z" fill="white"/>
<path d="M87.0166 43.4731C87.0166 43.9352 87.0099 44.3918 86.9922 44.8472C86.9678 45.6572 86.9256 46.4528 86.8524 47.244C86.8336 47.4579 86.8147 47.6762 86.7914 47.8956C86.7127 48.6856 86.6151 49.4646 86.4865 50.2425C86.4388 50.5539 86.39 50.8642 86.329 51.1678C86.3223 51.2221 86.3157 51.2775 86.299 51.3262C86.2247 51.7517 86.1405 52.1773 86.0484 52.5972C85.9808 52.9141 85.9087 53.2366 85.83 53.5524C85.8045 53.6798 85.7745 53.8139 85.739 53.948C85.6592 54.2638 85.5793 54.5752 85.4884 54.891C85.4696 54.9885 85.4396 55.0849 85.4097 55.1824C85.3298 55.4739 85.2444 55.7664 85.1535 56.0578C85.1235 56.1808 85.0869 56.295 85.0448 56.4179C84.9893 56.6063 84.9284 56.7892 84.8685 56.9709C84.7332 57.3787 84.5934 57.7853 84.4482 58.1931C84.3317 58.5156 84.2164 58.8314 84.0878 59.1538C83.9602 59.483 83.8271 59.8176 83.6863 60.1467C83.6253 60.2985 83.5588 60.4559 83.4911 60.6088C83.358 60.9246 83.2172 61.2404 83.0719 61.5507C82.9011 61.9341 82.7182 62.3119 82.5363 62.6887C82.3167 63.133 82.0916 63.5707 81.8609 64.0018C81.8421 64.0328 81.8232 64.0572 81.8121 64.0882C81.556 64.5503 81.3009 65.0068 81.0325 65.4567C80.7708 65.8999 80.5024 66.3388 80.2285 66.7698C80.223 66.782 80.2163 66.7886 80.2097 66.7942C79.9302 67.2385 79.6385 67.6707 79.3402 68.1028C79.236 68.2535 79.1339 68.3998 79.023 68.5527C78.9022 68.7356 78.768 68.9118 78.6393 69.0879C78.585 69.1611 78.5373 69.2342 78.4819 69.3062C78.4142 69.3982 78.3488 69.4835 78.2745 69.5744C78.1957 69.683 78.1104 69.7938 78.0261 69.9035C77.8852 70.0852 77.7521 70.2614 77.6058 70.4387C77.5747 70.4808 77.5381 70.5174 77.5137 70.5595C77.313 70.8221 77.1001 71.0703 76.8927 71.3263C76.8262 71.3994 76.7652 71.4781 76.6975 71.5512C76.5278 71.7573 76.3515 71.9646 76.1685 72.1662C76.0221 72.3302 75.8758 72.4931 75.7294 72.6527C75.6939 72.6881 75.6628 72.7314 75.6262 72.7679C75.5963 72.8045 75.5597 72.8466 75.5176 72.8832C75.4133 73.0051 75.3035 73.127 75.1882 73.2422C75.146 73.291 75.1028 73.3331 75.054 73.3818C75.0119 73.4306 74.9631 73.4793 74.9143 73.5281C74.7135 73.7409 74.5073 73.9536 74.2932 74.1664C74.22 74.2461 74.148 74.3193 74.0681 74.3913C73.9894 74.4711 73.9162 74.5442 73.8363 74.6162C73.6855 74.7692 73.5258 74.9154 73.3739 75.0606C71.8224 76.5266 70.1601 77.884 68.4012 79.1118C68.1329 79.2946 67.8589 79.483 67.5906 79.6659C67.0427 80.0238 66.4883 80.3773 65.9282 80.7174C65.5079 80.9734 65.0832 81.2172 64.6573 81.4532C64.3823 81.6061 64.115 81.7524 63.8411 81.892C63.5727 82.0383 63.2988 82.1779 63.0183 82.3186C62.69 82.4882 62.3562 82.6522 62.0213 82.8106C61.5766 83.0179 61.1252 83.224 60.6694 83.419C60.3656 83.5531 60.0606 83.6805 59.7501 83.8024C58.8307 84.1725 57.8925 84.5138 56.9433 84.8229C56.6272 84.9271 56.3045 85.0246 55.9884 85.1221C55.6901 85.213 55.3907 85.2983 55.0935 85.3836C55.0314 85.3958 54.9715 85.4147 54.9039 85.4324C54.6177 85.5055 54.3316 85.5842 54.0466 85.6507C53.7538 85.7305 53.4555 85.797 53.1639 85.8646C53.0474 85.8878 52.9387 85.9188 52.8223 85.9366C52.5728 85.9975 52.3233 86.0463 52.0737 86.095C51.4106 86.2291 50.7407 86.3499 50.0654 86.4474C49.675 86.5095 49.2802 86.5638 48.8832 86.6125C48.5971 86.6491 48.3176 86.679 48.0315 86.71C46.6675 86.8497 45.2857 86.9283 43.885 86.9416C43.7642 86.9461 43.6366 86.9461 43.5091 86.9461C41.4996 86.9461 39.5267 86.8131 37.5916 86.5394C36.6833 86.412 35.7895 86.2657 34.9067 86.0828C34.6872 86.0407 34.462 85.9975 34.2425 85.9488C34.024 85.9 33.8044 85.8513 33.5848 85.797C32.7087 85.5964 31.8448 85.3659 30.992 85.1099C30.1337 84.8484 29.2931 84.5681 28.4591 84.2645C28.0455 84.106 27.6318 83.9475 27.2237 83.7835C26.9254 83.6628 26.6271 83.5398 26.3288 83.4123C24.9037 82.7984 23.5164 82.1048 22.1768 81.3513C22.22 81.3745 22.2622 81.4 22.3109 81.4178C22.1834 81.3446 22.0559 81.277 21.9284 81.205C21.8419 81.1562 21.7565 81.1075 21.6777 81.0587C21.0622 80.7064 20.4545 80.3285 19.8579 79.9396C19.584 79.7634 19.3101 79.5805 19.0417 79.3977C18.7744 79.216 18.5071 79.0265 18.2377 78.8381C17.9471 78.632 17.6599 78.4181 17.3738 78.2065C16.8747 77.8286 16.3879 77.4452 15.9066 77.0507C14.9884 76.2961 14.099 75.5049 13.2461 74.6717C13.1608 74.593 13.082 74.5143 13.0033 74.4345C12.6384 74.0755 12.278 73.7109 11.932 73.3397C11.84 73.2422 11.7557 73.1447 11.6581 73.0472C11.81 73.1148 11.9686 73.1868 12.1272 73.2477C12.2359 73.3031 12.3523 73.3453 12.4665 73.3885C12.6318 73.4561 12.7959 73.5159 12.9667 73.5702C14.3063 74.0334 15.7247 74.2705 17.1908 74.2705C17.4525 74.2705 17.7209 74.2639 17.9893 74.2461C18.4816 74.2151 18.9629 74.1608 19.4498 74.0755H19.4564C25.1477 73.1203 30.2546 68.6081 32.4592 62.4394L45.279 26.496C45.6938 25.3469 46.7839 24.5734 48.0071 24.5734H77.6546C78.524 24.5734 79.1694 24.7873 79.4678 25.1696C79.7173 25.492 79.7295 25.9308 79.6496 26.2278C79.5842 26.5137 79.3103 26.8062 78.9199 27.0611C78.9022 27.0733 78.8767 27.0921 78.8534 27.1043C78.1702 27.5232 77.16 27.8346 76.2406 27.8346H67.3355C64.1206 27.8412 61.1995 29.8602 60.0606 32.8709L49.919 59.8298C47.9639 60.0791 46.2849 61.3988 45.6084 63.2848L40.7078 76.9654H53.2304L56.8523 66.8562C57.6375 64.6589 56.8889 62.3961 55.2942 61.0409L65.1741 34.7934C65.5079 33.8925 66.3796 33.2908 67.341 33.2908L76.2406 33.2853C77.7632 33.2853 79.3824 32.9318 80.8196 32.2437C80.8373 32.2315 80.8617 32.2259 80.8806 32.2138C82.4143 31.4713 83.7295 30.34 84.4781 28.8318C86.1216 33.4127 87.0166 38.3393 87.0166 43.4731Z" fill="white"/>
<path d="M11.6581 73.0472C11.7557 73.1447 11.84 73.2422 11.932 73.3397C11.8278 73.2422 11.737 73.1386 11.6394 73.0355L11.6583 73.0411L11.6581 73.0472Z" fill="white"/>
<path d="M18.2377 78.8381C18.5071 79.0265 18.7744 79.216 19.0417 79.3977C18.8831 79.2946 18.732 79.1904 18.58 79.0818C18.4636 79.0021 18.353 78.9168 18.2377 78.8381Z" fill="white"/>
<path d="M19.0417 79.3977C19.3101 79.5805 19.584 79.7634 19.8579 79.9396C19.6749 79.8243 19.4987 79.7078 19.3157 79.5871C19.2247 79.525 19.1337 79.4653 19.0417 79.3977Z" fill="white"/>
<path d="M21.9284 81.205C22.0559 81.277 22.1834 81.3446 22.3109 81.4178C22.2622 81.4 22.22 81.3745 22.1768 81.3513C22.0903 81.3025 22.0071 81.2538 21.9284 81.205Z" fill="white"/>
<path d="M63.0183 82.3186C63.2988 82.1779 63.5727 82.0383 63.8411 81.892C63.677 81.9829 63.5179 82.0679 63.3549 82.1543C63.244 82.2075 63.1292 82.2632 63.0183 82.3186Z" fill="white"/>
<path d="M78.0261 69.9035C78.0017 69.9401 77.9771 69.9751 77.946 70.0127C77.8362 70.1579 77.7222 70.298 77.6058 70.4387C77.7521 70.2614 77.8852 70.0852 78.0261 69.9035Z" fill="white"/>
</svg>
