<svg width="133" height="56" viewBox="0 0 133 56" fill="none" xmlns="http://www.w3.org/2000/svg">
<path d="M85.7735 19.2327C85.7735 26.6157 82.3654 30.3061 75.5493 30.3061C68.7332 30.3061 65.3259 26.6157 65.3259 19.2327V1.06889C65.3259 0.860617 65.3965 0.681588 65.5404 0.531803C65.6836 0.382019 65.8653 0.307128 66.0862 0.307128H68.233C68.4411 0.307128 68.62 0.382019 68.7696 0.531803C68.9185 0.681588 68.9933 0.860617 68.9933 1.06889V19.2327C68.9933 21.9274 69.4878 23.9295 70.4761 25.2384C71.4651 26.5472 73.1559 27.2013 75.5493 27.2013C77.838 27.2013 79.5032 26.5864 80.5442 25.3553C81.5845 24.125 82.1053 22.0843 82.1053 19.2327V1.06889C82.1053 0.860617 82.1766 0.681588 82.3198 0.531803C82.463 0.382019 82.6447 0.307128 82.8663 0.307128H85.0125C85.2205 0.307128 85.3994 0.382019 85.549 0.531803C85.6986 0.681588 85.7735 0.860617 85.7735 1.06889V19.2327Z" fill="white"/>
<path d="M103.567 17.0644L100.777 6.92832C100.205 4.88412 99.9055 3.82279 99.8798 3.74433C99.8535 3.66659 99.8086 3.58242 99.743 3.49113C99.6782 3.39983 99.6005 3.32779 99.5093 3.27572C99.4181 3.22437 99.307 3.19798 99.1773 3.19798C99.0341 3.19798 98.9072 3.23007 98.7968 3.29498C98.6863 3.3606 98.598 3.44476 98.5339 3.54961C98.4683 3.65375 98.241 4.41551 97.8513 5.83418L94.7482 17.0644H103.567ZM93.9879 20.2292L91.4313 29.4473C91.3793 29.6556 91.2753 29.8054 91.1192 29.8967C90.9632 29.988 90.8264 30.0336 90.7095 30.0336H88.3489C87.8936 30.0336 87.6663 29.8182 87.6663 29.3888C87.6663 29.2975 87.6784 29.2062 87.7048 29.1157L95.0994 3.081C95.6716 1.04964 97.0311 0.0332481 99.1773 0.0332481C101.297 0.0332481 102.644 1.03609 103.216 3.04177L110.611 29.1157C110.637 29.1677 110.65 29.259 110.65 29.3888C110.65 29.8182 110.422 30.0336 109.966 30.0336H107.607C107.438 30.0336 107.294 29.978 107.177 29.8674C107.06 29.7569 106.878 29.2519 106.63 28.3539L104.328 20.2292H93.9879Z" fill="white"/>
<path d="M120.766 14.7603L132.804 29.1545C132.934 29.2843 133 29.4477 133 29.6424C133 29.9027 132.824 30.0333 132.473 30.0333H129.37C128.993 30.0333 128.7 29.9027 128.493 29.6424L117.216 15.9122V29.2323C117.216 29.4413 117.147 29.6267 117.01 29.7886C116.874 29.9519 116.701 30.0333 116.493 30.0333H114.308C114.1 30.0333 113.927 29.9555 113.79 29.7986C113.654 29.6424 113.586 29.4541 113.586 29.2323V1.06925C113.586 0.873104 113.657 0.697645 113.8 0.540728C113.944 0.385237 114.125 0.306777 114.347 0.306777H116.454C116.662 0.306777 116.841 0.382384 116.99 0.532168C117.14 0.681952 117.216 0.860979 117.216 1.06925V13.9985L128.727 0.678387C128.961 0.430886 129.227 0.306777 129.527 0.306777H132.395C132.772 0.306777 132.96 0.456562 132.96 0.756131C132.96 0.899495 132.908 1.03002 132.804 1.147L120.766 14.7603Z" fill="white"/>
<path d="M75.3826 55.3394C75.3826 55.6133 75.1703 55.7923 74.7449 55.875C74.3202 55.9578 73.7017 55.9999 72.8909 55.9999C71.2684 55.9999 70.1833 55.6889 69.636 55.0676C69.0881 54.4464 68.8145 53.4171 68.8145 51.9785V41.4858L65.8674 41.1484C65.7014 41.1384 65.5703 41.0849 65.472 40.9865C65.3744 40.8888 65.3259 40.7661 65.3259 40.6199V39.7982C65.3259 39.4458 65.5162 39.2697 65.8974 39.2697H68.8145V36.3196C68.8145 36.1434 68.8679 36.0044 68.9762 35.9016C69.0838 35.7989 69.3254 35.7176 69.7016 35.6591C70.0778 35.6007 70.4811 35.5422 70.9115 35.483H70.9998C71.3019 35.483 71.4537 35.6499 71.4537 35.9823V39.2697H74.6936C74.8603 39.2697 75.0021 39.3289 75.119 39.4458C75.2365 39.5635 75.295 39.7047 75.295 39.8709V40.8838C75.295 41.0507 75.2365 41.1919 75.119 41.3096C75.0021 41.4266 74.8603 41.4858 74.6936 41.4858H71.4537V51.9785C71.4537 52.7709 71.5663 53.2845 71.7907 53.5191C72.0152 53.7538 72.4455 53.8715 73.0811 53.8715H74.752C75.1724 53.8715 75.3826 54.0141 75.3826 54.2973V55.3394Z" fill="white"/>
<path d="M85.5868 40.8256C85.5868 41.1672 85.3759 41.3391 84.9555 41.3391C83.5782 41.3391 82.1945 41.7599 80.8072 42.6009V55.1928C80.8072 55.349 80.7487 55.4888 80.6312 55.6107C80.5136 55.7334 80.3768 55.794 80.2207 55.794H78.7401C78.5933 55.794 78.4615 55.7355 78.3439 55.6179C78.2271 55.5009 78.1679 55.3589 78.1679 55.1928V39.8712C78.1679 39.6951 78.2242 39.551 78.3368 39.4383C78.4487 39.3256 78.5833 39.2693 78.7401 39.2693H80.1474C80.3134 39.2693 80.4502 39.3256 80.5578 39.4383C80.6654 39.551 80.7188 39.6951 80.7188 39.8712V40.5025C82.0876 39.5332 83.4991 39.0496 84.9555 39.0496C85.3759 39.0496 85.5868 39.2307 85.5868 39.5924V40.8256Z" fill="white"/>
<path d="M97.2859 52.6389V47.7959H95.0721C93.4012 47.7959 92.2184 47.9942 91.5244 48.3907C90.8297 48.7873 90.4834 49.5719 90.4834 50.7459V51.1125C90.4834 52.0619 90.6886 52.7537 91.0983 53.1888C91.5094 53.6254 92.2234 53.8422 93.2395 53.8422C94.48 53.8422 95.8295 53.4413 97.2859 52.6389ZM99.9394 55.1924C99.9394 55.3586 99.8781 55.5012 99.7563 55.6182C99.6337 55.7359 99.4948 55.7944 99.338 55.7944H97.9458C97.789 55.7944 97.6522 55.7359 97.5353 55.6182C97.4178 55.5012 97.3593 55.3586 97.3593 55.1924V54.5319C95.6877 55.5105 94.1437 55.9998 92.7264 55.9998C91.1532 55.9998 89.9426 55.5918 89.0982 54.7744C88.2517 53.9577 87.8299 52.7466 87.8299 51.1418V50.7759C87.8299 49.1019 88.3843 47.8715 89.493 47.0848C90.6024 46.2966 92.4621 45.9029 95.0721 45.9029H97.2859V44.6996C97.2859 43.4571 97.0487 42.5813 96.5748 42.0727C96.1003 41.5641 95.2673 41.3095 94.0753 41.3095C93.1953 41.3095 92.3787 41.3338 91.627 41.383L89.4866 41.5442H89.3398C88.9778 41.5442 88.7975 41.383 88.7975 41.0606V40.0185C88.7975 39.8031 88.8752 39.6512 89.032 39.5635C89.188 39.475 89.7595 39.368 90.747 39.2404C91.7339 39.1134 92.844 39.0492 94.0753 39.0492C97.9842 39.0492 99.9394 40.9329 99.9394 44.6996V55.1924Z" fill="white"/>
<path d="M113.53 53.5047V41.5733C112.758 41.437 111.589 41.3679 110.026 41.3679C108.677 41.3679 107.69 41.7644 107.065 42.5569C106.439 43.3493 106.126 44.636 106.126 46.4163V48.5739C106.126 50.4034 106.436 51.7144 107.057 52.5075C107.678 53.2992 108.667 53.6958 110.026 53.6958C110.964 53.6958 112.132 53.6323 113.53 53.5047ZM116.184 54.7964C116.184 55.061 116.11 55.2464 115.964 55.3541C115.817 55.4618 115.128 55.5966 113.896 55.7571C112.665 55.919 111.375 55.9996 110.026 55.9996C107.905 55.9996 106.282 55.3591 105.159 54.0774C104.034 52.7957 103.473 50.9612 103.473 48.5739V46.4163C103.473 44.0098 104.027 42.1803 105.137 40.9278C106.245 39.6753 107.876 39.049 110.026 39.049C111.229 39.049 112.396 39.1525 113.53 39.3579V33.7659C113.53 33.6097 113.586 33.4749 113.698 33.3629C113.811 33.2503 113.945 33.1932 114.102 33.1932H115.641C116.003 33.1932 116.184 33.3843 116.184 33.7659V54.7964Z" fill="white"/>
<path d="M130.317 46.3582V46.0786C130.317 44.4552 130.006 43.2641 129.385 42.5059C128.765 41.7477 127.766 41.3682 126.387 41.3682C123.71 41.3682 122.37 42.9381 122.37 46.0786V46.3582H130.317ZM133 47.7084C133 48.1485 132.808 48.3681 132.428 48.3681H122.37V48.7939C122.37 50.4865 122.698 51.7269 123.353 52.5143C124.008 53.3018 125.068 53.6955 126.534 53.6955C127.121 53.6955 127.742 53.6812 128.396 53.652C129.051 53.6227 129.662 53.5835 130.228 53.535L131.885 53.3581H132.032C132.354 53.3581 132.515 53.5 132.515 53.7839V54.796C132.515 55.0706 132.438 55.2611 132.281 55.3688C132.124 55.4765 131.453 55.6091 130.265 55.7646C129.078 55.9208 127.834 56 126.534 56C124.364 56 122.685 55.3909 121.498 54.1726C120.311 52.9544 119.717 51.162 119.717 48.7939V46.0786C119.717 43.9067 120.298 42.1927 121.461 40.9353C122.624 39.6785 124.267 39.0494 126.387 39.0494C128.498 39.0494 130.128 39.6685 131.277 40.9053C132.425 42.1435 133 43.8682 133 46.0786V47.7084Z" fill="white"/>
<path d="M51.1958 12.4464C50.7854 12.3565 50.3507 12.3094 49.894 12.3094H30.8451C28.5807 12.3094 26.5507 13.7424 25.7919 15.8764L17.55 39.0124C16.4826 42.0116 13.9909 44.1336 11.351 44.2862C10.2009 44.3526 9.13356 44.0437 8.23364 43.3975C8.22152 43.3897 8.2144 43.3818 8.20228 43.374C7.78759 43.0758 7.41208 42.7006 7.08004 42.262C6.60265 41.6236 6.24638 40.884 6.02763 40.0851C6.02407 40.0659 6.01623 40.0495 6.01196 40.0302C5.59727 38.4717 5.67137 36.69 6.27773 34.991L16.608 5.654L16.6394 5.55985H16.6429L17.9419 1.85946C21.0507 0.657623 24.4267 0 27.9551 0C37.6313 0 46.1739 4.94859 51.1958 12.4464Z" fill="white"/>
<path d="M13.5923 3.98548L11.9299 8.66802H11.9257L11.8829 8.79356L3.35247 32.7512L2.97696 33.8125C2.35492 35.5593 2.12762 37.3517 2.2801 39.0557C0.813712 35.6606 0 31.9138 0 27.9831C0 17.8106 5.4523 8.88342 13.5923 3.98548Z" fill="white"/>
<path d="M55.9092 27.9827C55.9092 28.2801 55.9049 28.574 55.8935 28.8672C55.8778 29.3885 55.8508 29.9007 55.8037 30.4099C55.7916 30.5476 55.7795 30.6881 55.7645 30.8293C55.714 31.3379 55.6513 31.8393 55.5686 32.34C55.538 32.5404 55.5066 32.7402 55.4674 32.9356C55.4632 32.9705 55.4589 33.0062 55.4482 33.0376C55.4004 33.3115 55.3463 33.5854 55.2872 33.8557C55.2437 34.0597 55.1974 34.2672 55.1468 34.4705C55.1304 34.5525 55.1112 34.6388 55.0884 34.7252C55.0371 34.9284 54.9858 35.1289 54.9273 35.3321C54.9152 35.3949 54.896 35.457 54.8767 35.5197C54.8254 35.7073 54.7706 35.8956 54.7121 36.0832C54.6929 36.1624 54.6694 36.2358 54.6423 36.315C54.6067 36.4363 54.5675 36.5539 54.529 36.6709C54.4421 36.9334 54.3523 37.1952 54.259 37.4576C54.1842 37.6652 54.1101 37.8685 54.0274 38.076C53.9455 38.2879 53.86 38.5033 53.7695 38.7151C53.7303 38.8128 53.6875 38.9141 53.6441 39.0125C53.5586 39.2158 53.4681 39.4191 53.3747 39.6188C53.265 39.8656 53.1474 40.1088 53.0306 40.3513C52.8895 40.6374 52.7448 40.9191 52.5966 41.1965C52.5845 41.2165 52.5724 41.2322 52.5653 41.2522C52.4007 41.5496 52.2368 41.8435 52.0644 42.1331C51.8962 42.4184 51.7238 42.7008 51.5478 42.9783C51.5442 42.9861 51.5399 42.9904 51.5357 42.994C51.3561 43.28 51.1687 43.5581 50.977 43.8363C50.9101 43.9333 50.8445 44.0275 50.7733 44.1259C50.6956 44.2436 50.6094 44.357 50.5267 44.4704C50.4918 44.5175 50.4612 44.5645 50.4255 44.6109C50.3821 44.6701 50.34 44.725 50.2923 44.7835C50.2417 44.8534 50.1868 44.9247 50.1327 44.9954C50.0422 45.1123 49.9567 45.2257 49.8626 45.3399C49.8427 45.367 49.8192 45.3905 49.8035 45.4176C49.6745 45.5867 49.5377 45.7464 49.4045 45.9112C49.3617 45.9583 49.3225 46.0089 49.2791 46.056C49.1701 46.1886 49.0568 46.322 48.9392 46.4518C48.8451 46.5574 48.7511 46.6622 48.657 46.765C48.6342 46.7878 48.6143 46.8156 48.5908 46.8391C48.5715 46.8627 48.548 46.8898 48.5209 46.9133C48.454 46.9918 48.3834 47.0702 48.3093 47.1444C48.2822 47.1758 48.2545 47.2029 48.2231 47.2343C48.196 47.2657 48.1647 47.297 48.1333 47.3284C48.0044 47.4654 47.8718 47.6023 47.7343 47.7393C47.6873 47.7906 47.641 47.8377 47.5897 47.8841C47.5391 47.9354 47.492 47.9825 47.4407 48.0289C47.3438 48.1273 47.2412 48.2214 47.1436 48.3149C46.1468 49.2585 45.0787 50.1323 43.9486 50.9225C43.7762 51.0402 43.6002 51.1615 43.4278 51.2792C43.0758 51.5096 42.7195 51.7371 42.3597 51.9561C42.0896 52.1208 41.8167 52.2777 41.5431 52.4297C41.3664 52.5281 41.1947 52.6222 41.0187 52.7121C40.8463 52.8063 40.6703 52.8961 40.49 52.9867C40.2791 53.0958 40.0646 53.2014 39.8494 53.3034C39.5637 53.4368 39.2737 53.5694 38.9808 53.695C38.7856 53.7813 38.5897 53.8633 38.3902 53.9418C37.7995 54.18 37.1967 54.3997 36.5867 54.5987C36.3837 54.6657 36.1763 54.7285 35.9732 54.7913C35.7816 54.8497 35.5892 54.9047 35.3982 54.9596C35.3583 54.9674 35.3199 54.9796 35.2764 54.991C35.0926 55.038 34.9087 55.0887 34.7256 55.1315C34.5375 55.1828 34.3458 55.2256 34.1584 55.2691C34.0836 55.2841 34.0138 55.3041 33.939 55.3155C33.7786 55.3547 33.6183 55.3861 33.458 55.4175C33.0319 55.5038 32.6015 55.5816 32.1676 55.6443C31.9168 55.6843 31.6631 55.7192 31.408 55.7506C31.2242 55.7741 31.0447 55.7934 30.8608 55.8134C29.9844 55.9032 29.0966 55.9539 28.1967 55.9624C28.119 55.9653 28.0371 55.9653 27.9551 55.9653C26.664 55.9653 25.3964 55.8797 24.153 55.7035C23.5695 55.6215 22.9952 55.5273 22.428 55.4097C22.2869 55.3825 22.1423 55.3547 22.0012 55.3233C21.8608 55.292 21.7197 55.2606 21.5787 55.2256C21.0158 55.0965 20.4607 54.9482 19.9128 54.7834C19.3613 54.6151 18.8212 54.4346 18.2853 54.2392C18.0196 54.1372 17.7538 54.0352 17.4916 53.9296C17.2999 53.8519 17.1082 53.7727 16.9166 53.6907C16.001 53.2956 15.1096 52.8491 14.2488 52.364C14.2766 52.379 14.3037 52.3954 14.3351 52.4068C14.2531 52.3598 14.1712 52.3162 14.0892 52.2699C14.0337 52.2385 13.9788 52.2071 13.9282 52.1757C13.5327 51.9489 13.1423 51.7057 12.7589 51.4553C12.5829 51.3419 12.4069 51.2242 12.2345 51.1066C12.0628 50.9896 11.8911 50.8676 11.7179 50.7464C11.5312 50.6137 11.3467 50.476 11.1629 50.3398C10.8422 50.0966 10.5294 49.8498 10.2202 49.5959C9.6302 49.1101 9.05875 48.6009 8.51081 48.0645C8.45595 48.0139 8.40536 47.9632 8.35477 47.9119C8.12035 47.6808 7.88877 47.4461 7.66646 47.2072C7.60732 47.1444 7.55317 47.0816 7.49046 47.0189C7.58808 47.0624 7.68998 47.1087 7.79187 47.148C7.8617 47.1836 7.93651 47.2107 8.0099 47.2386C8.11607 47.2821 8.22152 47.3206 8.33125 47.3555C9.19199 47.6537 10.1033 47.8063 11.0453 47.8063C11.2134 47.8063 11.3859 47.802 11.5583 47.7906C11.8747 47.7706 12.1839 47.7357 12.4967 47.6808H12.501C16.1577 47.0659 19.4389 44.1616 20.8554 40.1908L29.0923 17.0549C29.3588 16.3152 30.0592 15.8174 30.8451 15.8174H49.894C50.4526 15.8174 50.8673 15.955 51.059 16.2011C51.2193 16.4087 51.2271 16.6911 51.1758 16.8823C51.1338 17.0663 50.9578 17.2546 50.707 17.4186C50.6956 17.4265 50.6792 17.4386 50.6642 17.4465C50.2253 17.7161 49.5762 17.9165 48.9855 17.9165H43.2639C41.1982 17.9208 39.3214 19.2203 38.5897 21.1583L32.0736 38.5111C30.8174 38.6716 29.7386 39.5211 29.3039 40.7351L26.1553 49.541H34.2012L36.5283 43.0339C37.0328 41.6195 36.5518 40.163 35.5272 39.2907L41.8752 22.3958C42.0896 21.8159 42.6497 21.4286 43.2674 21.4286L48.9855 21.425C49.9638 21.425 51.0041 21.1975 51.9276 20.7546C51.939 20.7467 51.9546 20.7431 51.9668 20.7353C52.9522 20.2574 53.7972 19.5292 54.2782 18.5584C55.3342 21.507 55.9092 24.6782 55.9092 27.9827Z" fill="white"/>
<path d="M7.49046 47.0189C7.55317 47.0816 7.60732 47.1444 7.66646 47.2072C7.59948 47.1444 7.54116 47.0777 7.47846 47.0114L7.49057 47.0149L7.49046 47.0189Z" fill="white"/>
<path d="M11.7179 50.7464C11.8911 50.8676 12.0628 50.9896 12.2345 51.1066C12.1326 51.0402 12.0355 50.9732 11.9379 50.9033C11.8631 50.8519 11.792 50.797 11.7179 50.7464Z" fill="white"/>
<path d="M12.2345 51.1066C12.4069 51.2242 12.5829 51.3419 12.7589 51.4553C12.6414 51.3812 12.5281 51.3062 12.4106 51.2284C12.3521 51.1885 12.2936 51.1501 12.2345 51.1066Z" fill="white"/>
<path d="M14.0892 52.2699C14.1712 52.3162 14.2531 52.3598 14.3351 52.4068C14.3037 52.3954 14.2766 52.379 14.2488 52.364C14.1933 52.3327 14.1398 52.3013 14.0892 52.2699Z" fill="white"/>
<path d="M40.49 52.9867C40.6703 52.8961 40.8463 52.8063 41.0187 52.7121C40.9132 52.7706 40.8111 52.8253 40.7063 52.8809C40.6351 52.9152 40.5612 52.951 40.49 52.9867Z" fill="white"/>
<path d="M50.1327 44.9954C50.117 45.0189 50.1012 45.0414 50.0812 45.0657C50.0107 45.1591 49.9375 45.2493 49.8626 45.3399C49.9567 45.2257 50.0422 45.1123 50.1327 44.9954Z" fill="white"/>
</svg>
