<svg width="95" height="40" viewBox="0 0 95 40" fill="none" xmlns="http://www.w3.org/2000/svg">
<path d="M61.2668 13.7377C61.2668 19.0112 58.8324 21.6472 53.9638 21.6472C49.0952 21.6472 46.6614 19.0112 46.6614 13.7377V0.763492C46.6614 0.614726 46.7118 0.486848 46.8146 0.379859C46.9169 0.272871 47.0466 0.219377 47.2044 0.219377H48.7379C48.8865 0.219377 49.0143 0.272871 49.1211 0.379859C49.2275 0.486848 49.2809 0.614726 49.2809 0.763492V13.7377C49.2809 15.6624 49.6342 17.0925 50.3401 18.0274C51.0465 18.9623 52.2542 19.4295 53.9638 19.4295C55.5986 19.4295 56.788 18.9903 57.5316 18.111C58.2746 17.2321 58.6467 15.7745 58.6467 13.7377V0.763492C58.6467 0.614726 58.6976 0.486848 58.7999 0.379859C58.9022 0.272871 59.032 0.219377 59.1902 0.219377H60.7232C60.8718 0.219377 60.9996 0.272871 61.1064 0.379859C61.2133 0.486848 61.2668 0.614726 61.2668 0.763492V13.7377Z" fill="white"/>
<path d="M73.9766 12.1889L71.9835 4.9488C71.5748 3.48866 71.3611 2.73056 71.3427 2.67452C71.3239 2.61899 71.2918 2.55887 71.245 2.49366C71.1987 2.42845 71.1432 2.37699 71.0781 2.3398C71.0129 2.30312 70.9335 2.28427 70.8409 2.28427C70.7386 2.28427 70.648 2.3072 70.5691 2.35356C70.4902 2.40043 70.4271 2.46055 70.3813 2.53544C70.3345 2.60982 70.1721 3.15393 69.8938 4.16727L67.6773 12.1889H73.9766ZM67.1342 14.4494L65.3081 21.0338C65.271 21.1826 65.1966 21.2896 65.0852 21.3548C64.9737 21.42 64.876 21.4526 64.7925 21.4526H63.1064C62.7811 21.4526 62.6188 21.2987 62.6188 20.992C62.6188 20.9268 62.6275 20.8616 62.6463 20.7969L67.9282 2.20072C68.3369 0.749743 69.3079 0.0237487 70.8409 0.0237487C72.355 0.0237487 73.317 0.740063 73.7257 2.17269L79.0081 20.7969C79.0264 20.8341 79.0356 20.8993 79.0356 20.992C79.0356 21.2987 78.8732 21.4526 78.5475 21.4526H76.8618C76.7412 21.4526 76.6384 21.4128 76.5549 21.3339C76.4715 21.2549 76.3412 20.8942 76.1646 20.2528L74.5201 14.4494H67.1342Z" fill="white"/>
<path d="M86.2616 10.543L94.8603 20.8247C94.9529 20.9174 94.9998 21.0341 94.9998 21.1731C94.9998 21.3591 94.874 21.4523 94.6236 21.4523H92.4072C92.1379 21.4523 91.9287 21.3591 91.7806 21.1731L83.7254 11.3658V20.8802C83.7254 21.0295 83.6761 21.1619 83.5789 21.2776C83.4812 21.3942 83.358 21.4523 83.2094 21.4523H81.6484C81.4998 21.4523 81.3766 21.3968 81.2789 21.2847C81.1817 21.1731 81.1329 21.0386 81.1329 20.8802V0.76375C81.1329 0.623646 81.1832 0.498318 81.286 0.386234C81.3884 0.27517 81.5181 0.219126 81.6764 0.219126H83.1814C83.33 0.219126 83.4577 0.273131 83.5646 0.38012C83.6715 0.487109 83.7254 0.614985 83.7254 0.76375V9.99892L91.9476 0.484562C92.115 0.307776 92.3049 0.219126 92.5191 0.219126H94.5677C94.8369 0.219126 94.9718 0.326116 94.9718 0.540093C94.9718 0.642497 94.9346 0.73573 94.8603 0.819283L86.2616 10.543Z" fill="white"/>
<path d="M53.8447 39.5281C53.8447 39.7238 53.6931 39.8516 53.3892 39.9107C53.0859 39.9698 52.6441 39.9999 52.0649 39.9999C50.906 39.9999 50.1309 39.7778 49.74 39.334C49.3486 38.8903 49.1532 38.1551 49.1532 37.1275V29.6327L47.0482 29.3917C46.9296 29.3846 46.8359 29.3464 46.7657 29.2761C46.696 29.2063 46.6614 29.1186 46.6614 29.0142V28.4273C46.6614 28.1756 46.7973 28.0498 47.0695 28.0498H49.1532V25.9426C49.1532 25.8167 49.1914 25.7174 49.2687 25.644C49.3456 25.5707 49.5181 25.5126 49.7868 25.4708C50.0556 25.429 50.3436 25.3873 50.651 25.345H50.7142C50.93 25.345 51.0384 25.4642 51.0384 25.7016V28.0498H53.3526C53.4717 28.0498 53.5729 28.092 53.6564 28.1756C53.7404 28.2597 53.7821 28.3605 53.7821 28.4792V29.2027C53.7821 29.3219 53.7404 29.4228 53.6564 29.5068C53.5729 29.5904 53.4717 29.6327 53.3526 29.6327H51.0384V37.1275C51.0384 37.6935 51.1188 38.0603 51.2791 38.228C51.4394 38.3956 51.7468 38.4796 52.2008 38.4796H53.3943C53.6946 38.4796 53.8447 38.5815 53.8447 38.7838V39.5281Z" fill="white"/>
<path d="M61.1334 29.1611C61.1334 29.4052 60.9828 29.5279 60.6825 29.5279C59.6987 29.5279 58.7103 29.8285 57.7194 30.4292V39.4234C57.7194 39.535 57.6777 39.6348 57.5937 39.7219C57.5097 39.8096 57.412 39.8529 57.3005 39.8529H56.2429C56.1381 39.8529 56.0439 39.8111 55.96 39.727C55.8765 39.6435 55.8342 39.5421 55.8342 39.4234V28.4795C55.8342 28.3536 55.8744 28.2507 55.9549 28.1702C56.0348 28.0897 56.131 28.0495 56.2429 28.0495H57.2481C57.3667 28.0495 57.4644 28.0897 57.5413 28.1702C57.6181 28.2507 57.6563 28.3536 57.6563 28.4795V28.9303C58.634 28.238 59.6422 27.8925 60.6825 27.8925C60.9828 27.8925 61.1334 28.022 61.1334 28.2803V29.1611Z" fill="white"/>
<path d="M69.49 37.5992V34.1399H67.9086C66.7151 34.1399 65.8703 34.2816 65.3746 34.5648C64.8783 34.8481 64.631 35.4085 64.631 36.2471V36.509C64.631 37.1871 64.7776 37.6813 65.0702 37.992C65.3639 38.3038 65.8739 38.4587 66.5996 38.4587C67.4857 38.4587 68.4497 38.1724 69.49 37.5992ZM71.3853 39.4231C71.3853 39.5418 71.3415 39.6437 71.2545 39.7273C71.167 39.8113 71.0677 39.8531 70.9557 39.8531H69.9613C69.8493 39.8531 69.7516 39.8113 69.6681 39.7273C69.5841 39.6437 69.5424 39.5418 69.5424 39.4231V38.9514C68.3484 39.6504 67.2455 39.9999 66.2332 39.9999C65.1094 39.9999 64.2447 39.7084 63.6416 39.1246C63.037 38.5412 62.7357 37.6762 62.7357 36.5298V36.2685C62.7357 35.0728 63.1316 34.1939 63.9236 33.632C64.716 33.069 66.0444 32.7878 67.9086 32.7878H69.49V31.9283C69.49 31.0408 69.3205 30.4152 68.982 30.0519C68.6431 29.6887 68.0481 29.5068 67.1966 29.5068C66.5681 29.5068 65.9848 29.5241 65.4479 29.5593L63.919 29.6744H63.8141C63.5556 29.6744 63.4268 29.5593 63.4268 29.329V28.5847C63.4268 28.4308 63.4823 28.3223 63.5943 28.2596C63.7057 28.1964 64.1139 28.12 64.8193 28.0288C65.5242 27.9381 66.3172 27.8923 67.1966 27.8923C69.9887 27.8923 71.3853 29.2378 71.3853 31.9283V39.4231Z" fill="white"/>
<path d="M81.0925 38.2176V29.6952C80.5413 29.5979 79.7066 29.5485 78.59 29.5485C77.6266 29.5485 76.9217 29.8317 76.4748 30.3978C76.0279 30.9638 75.804 31.8829 75.804 33.1545V34.6956C75.804 36.0024 76.0259 36.9388 76.4692 37.5054C76.9125 38.0709 77.6194 38.3542 78.59 38.3542C79.2598 38.3542 80.0945 38.3088 81.0925 38.2176ZM82.9884 39.1403C82.9884 39.3293 82.936 39.4617 82.8311 39.5387C82.7263 39.6156 82.2341 39.7119 81.3546 39.8265C80.4747 39.9422 79.5535 39.9997 78.59 39.9997C77.0749 39.9997 75.916 39.5422 75.1134 38.6267C74.3102 37.7112 73.9092 36.4008 73.9092 34.6956V33.1545C73.9092 31.4355 74.3051 30.1288 75.0976 29.2341C75.8895 28.3395 77.054 27.8922 78.59 27.8922C79.4491 27.8922 80.2828 27.9661 81.0925 28.1128V24.1185C81.0925 24.007 81.1327 23.9107 81.2132 23.8307C81.2936 23.7502 81.3892 23.7094 81.5012 23.7094H82.6011C82.8591 23.7094 82.9884 23.846 82.9884 24.1185V39.1403Z" fill="white"/>
<path d="M93.0833 33.113V32.9133C93.0833 31.7537 92.8614 30.9029 92.4181 30.3613C91.9748 29.8198 91.2612 29.5487 90.2764 29.5487C88.3643 29.5487 87.4075 30.6701 87.4075 32.9133V33.113H93.0833ZM95 34.0774C95 34.3918 94.8631 34.5487 94.5913 34.5487H87.4075V34.8528C87.4075 36.0618 87.6416 36.9478 88.1093 37.5102C88.577 38.0727 89.3344 38.3539 90.3813 38.3539C90.8006 38.3539 91.2439 38.3437 91.7117 38.3228C92.1794 38.3019 92.6156 38.2739 93.0202 38.2393L94.2035 38.1129H94.3083C94.5389 38.1129 94.6539 38.2143 94.6539 38.4171V39.14C94.6539 39.3362 94.5984 39.4722 94.4865 39.5491C94.3745 39.6261 93.8951 39.7208 93.0466 39.8319C92.1982 39.9435 91.3101 40 90.3813 40C88.8315 40 87.6324 39.5649 86.7845 38.6947C85.9361 37.8246 85.5121 36.5443 85.5121 34.8528V32.9133C85.5121 31.3619 85.9269 30.1377 86.758 29.2395C87.5886 28.3418 88.7618 27.8924 90.2764 27.8924C91.7844 27.8924 92.9484 28.3347 93.7694 29.2181C94.5893 30.1025 95 31.3344 95 32.9133V34.0774Z" fill="white"/>
<path d="M36.5684 8.89026C36.2753 8.82607 35.9648 8.79244 35.6386 8.79244H22.0322C20.4148 8.79244 18.9648 9.81597 18.4228 11.3403L12.5357 27.866C11.7733 30.0083 9.9935 31.524 8.10783 31.633C7.28638 31.6804 6.52397 31.4598 5.88117 30.9982C5.87252 30.9926 5.86743 30.987 5.85877 30.9814C5.56256 30.7684 5.29435 30.5005 5.05717 30.1871C4.71618 29.7312 4.4617 29.2028 4.30545 28.6322C4.30291 28.6185 4.29731 28.6068 4.29426 28.593C3.99805 27.4798 4.05098 26.2072 4.48409 24.9936L11.8629 4.03857L11.8853 3.97132H11.8878L12.8156 1.32819C15.0362 0.469731 17.4476 0 19.9679 0C26.8795 0 32.9813 3.53471 36.5684 8.89026Z" fill="white"/>
<path d="M9.70877 2.84677L8.52138 6.19144H8.51833L8.48779 6.28111L2.39462 23.3937L2.1264 24.1518C1.68209 25.3995 1.51973 26.6798 1.62865 27.8969C0.581223 25.4718 0 22.7956 0 19.9879C0 12.7218 3.8945 6.3453 9.70877 2.84677Z" fill="white"/>
<path d="M39.9351 19.9877C39.9351 20.2001 39.9321 20.41 39.9239 20.6194C39.9127 20.9918 39.8934 21.3576 39.8598 21.7214C39.8512 21.8197 39.8425 21.9201 39.8318 22.021C39.7957 22.3842 39.7509 22.7424 39.6919 23.1C39.67 23.2432 39.6476 23.3858 39.6196 23.5254C39.6165 23.5504 39.6135 23.5759 39.6058 23.5983C39.5717 23.7939 39.5331 23.9895 39.4908 24.1826C39.4598 24.3283 39.4267 24.4766 39.3906 24.6218C39.3789 24.6804 39.3651 24.742 39.3488 24.8037C39.3122 24.9489 39.2755 25.092 39.2338 25.2372C39.2252 25.2821 39.2114 25.3264 39.1977 25.3712C39.161 25.5052 39.1218 25.6397 39.0801 25.7737C39.0664 25.8303 39.0496 25.8827 39.0302 25.9393C39.0048 26.0259 38.9768 26.11 38.9493 26.1935C38.8872 26.381 38.8231 26.568 38.7564 26.7555C38.703 26.9037 38.65 27.0489 38.591 27.1972C38.5325 27.3485 38.4714 27.5023 38.4068 27.6537C38.3788 27.7235 38.3482 27.7958 38.3172 27.8661C38.2561 28.0113 38.1915 28.1565 38.1248 28.2992C38.0464 28.4754 37.9624 28.6492 37.879 28.8224C37.7782 29.0267 37.6749 29.2279 37.569 29.4261C37.5604 29.4404 37.5517 29.4516 37.5466 29.4658C37.4291 29.6783 37.312 29.8882 37.1888 30.095C37.0687 30.2988 36.9456 30.5006 36.8198 30.6988C36.8173 30.7044 36.8142 30.7074 36.8112 30.71C36.6829 30.9143 36.5491 31.113 36.4122 31.3117C36.3643 31.3809 36.3175 31.4482 36.2666 31.5185C36.2111 31.6026 36.1496 31.6836 36.0905 31.7646C36.0656 31.7982 36.0437 31.8318 36.0182 31.8649C35.9872 31.9072 35.9572 31.9465 35.9231 31.9882C35.8869 32.0382 35.8477 32.0891 35.8091 32.1395C35.7444 32.2231 35.6833 32.3041 35.6162 32.3856C35.6019 32.405 35.5851 32.4218 35.5739 32.4412C35.4818 32.5619 35.3841 32.676 35.2889 32.7937C35.2584 32.8273 35.2304 32.8635 35.1993 32.8971C35.1215 32.9919 35.0406 33.0872 34.9566 33.1799C34.8894 33.2553 34.8222 33.3302 34.755 33.4035C34.7387 33.4198 34.7245 33.4397 34.7077 33.4565C34.694 33.4733 34.6772 33.4927 34.6578 33.5095C34.61 33.5656 34.5596 33.6216 34.5067 33.6746C34.4873 33.697 34.4675 33.7164 34.4451 33.7388C34.4257 33.7612 34.4033 33.7836 34.3809 33.806C34.2888 33.9038 34.1942 34.0017 34.0959 34.0995C34.0623 34.1362 34.0293 34.1698 33.9926 34.2029C33.9565 34.2396 33.9229 34.2732 33.8862 34.3063C33.817 34.3766 33.7437 34.4439 33.674 34.5106C32.962 35.1846 32.1991 35.8088 31.3919 36.3732C31.2687 36.4573 31.143 36.5439 31.0198 36.628C30.7684 36.7925 30.5139 36.9551 30.2569 37.1115C30.064 37.2292 29.8691 37.3412 29.6736 37.4498C29.5474 37.5201 29.4248 37.5873 29.2991 37.6515C29.1759 37.7188 29.0502 37.7829 28.9214 37.8476C28.7708 37.9256 28.6176 38.001 28.4639 38.0739C28.2598 38.1691 28.0526 38.2639 27.8435 38.3536C27.704 38.4152 27.564 38.4738 27.4215 38.5298C26.9996 38.7 26.569 38.8569 26.1334 38.9991C25.9883 39.0469 25.8402 39.0918 25.6952 39.1366C25.5583 39.1784 25.4209 39.2176 25.2845 39.2568C25.2559 39.2624 25.2285 39.2711 25.1974 39.2793C25.0661 39.3129 24.9348 39.3491 24.804 39.3796C24.6696 39.4163 24.5327 39.4469 24.3989 39.478C24.3454 39.4887 24.2956 39.5029 24.2421 39.5111C24.1276 39.5391 24.0131 39.5615 23.8986 39.5839C23.5942 39.6456 23.2868 39.7011 22.9769 39.7459C22.7977 39.7745 22.6165 39.7994 22.4343 39.8218C22.303 39.8387 22.1748 39.8524 22.0434 39.8667C21.4174 39.9309 20.7833 39.967 20.1405 39.9732C20.085 39.9752 20.0265 39.9752 19.9679 39.9752C19.0457 39.9752 18.1403 39.9141 17.2522 39.7882C16.8353 39.7296 16.4251 39.6624 16.02 39.5783C15.9192 39.559 15.8159 39.5391 15.7151 39.5167C15.6149 39.4943 15.5141 39.4718 15.4133 39.4469C15.0113 39.3547 14.6148 39.2487 14.2234 39.131C13.8295 39.0108 13.4437 38.8819 13.061 38.7423C12.8711 38.6694 12.6813 38.5966 12.494 38.5212C12.3571 38.4656 12.2202 38.4091 12.0833 38.3505C11.4293 38.0683 10.7926 37.7493 10.1777 37.4029C10.1976 37.4136 10.2169 37.4253 10.2393 37.4334C10.1808 37.3998 10.1223 37.3687 10.0637 37.3356C10.024 37.3132 9.98485 37.2908 9.94871 37.2684C9.66625 37.1064 9.38734 36.9326 9.11352 36.7538C8.98781 36.6728 8.8621 36.5887 8.73893 36.5047C8.61628 36.4211 8.49362 36.334 8.36994 36.2474C8.2366 36.1526 8.10478 36.0543 7.97347 35.957C7.74444 35.7833 7.52101 35.607 7.30013 35.4256C6.87871 35.0787 6.47053 34.7149 6.07915 34.3318C6.03996 34.2956 6.00383 34.2594 5.96769 34.2228C5.80025 34.0577 5.63484 33.8901 5.47604 33.7194C5.4338 33.6746 5.39512 33.6297 5.35033 33.5849C5.42006 33.616 5.49284 33.6491 5.56562 33.6771C5.6155 33.7026 5.66894 33.722 5.72136 33.7418C5.79719 33.7729 5.87252 33.8004 5.95089 33.8254C6.56571 34.0383 7.21666 34.1474 7.88949 34.1474C8.00961 34.1474 8.13277 34.1443 8.25594 34.1362C8.48191 34.1219 8.7028 34.0969 8.92623 34.0577H8.92928C11.5412 33.6185 13.8849 31.544 14.8967 28.7077L20.7802 12.1821C20.9706 11.6537 21.4709 11.2981 22.0322 11.2981H35.6386C36.0376 11.2981 36.3338 11.3965 36.4707 11.5722C36.5852 11.7205 36.5908 11.9222 36.5542 12.0588C36.5241 12.1902 36.3984 12.3247 36.2193 12.4419C36.2111 12.4475 36.1994 12.4562 36.1887 12.4618C35.8752 12.6543 35.4116 12.7975 34.9897 12.7975H30.9028C29.4273 12.8006 28.0867 13.7288 27.564 15.113L22.9097 27.5079C22.0124 27.6226 21.2418 28.2294 20.9314 29.0965L18.6823 35.3864H24.4294L26.0916 30.7385C26.452 29.7282 26.1084 28.6879 25.3766 28.0648L29.9108 15.997C30.064 15.5828 30.4641 15.3061 30.9053 15.3061L34.9897 15.3036C35.6884 15.3036 36.4315 15.1411 37.0911 14.8247C37.0993 14.8191 37.1105 14.8165 37.1191 14.8109C37.823 14.4696 38.4266 13.9494 38.7701 13.256C39.5244 15.3622 39.9351 17.6273 39.9351 19.9877Z" fill="white"/>
<path d="M5.35033 33.5849C5.39512 33.6297 5.4338 33.6746 5.47604 33.7194C5.4282 33.6746 5.38655 33.6269 5.34176 33.5796L5.35041 33.5821L5.35033 33.5849Z" fill="white"/>
<path d="M8.36994 36.2474C8.49362 36.334 8.61628 36.4211 8.73893 36.5047C8.66615 36.4573 8.59679 36.4094 8.52706 36.3595C8.47362 36.3228 8.42287 36.2836 8.36994 36.2474Z" fill="white"/>
<path d="M8.73893 36.5047C8.8621 36.5887 8.98781 36.6728 9.11352 36.7538C9.02955 36.7008 8.94866 36.6473 8.86469 36.5917C8.82295 36.5632 8.78118 36.5358 8.73893 36.5047Z" fill="white"/>
<path d="M10.0637 37.3356C10.1223 37.3687 10.1808 37.3998 10.2393 37.4334C10.2169 37.4253 10.1976 37.4136 10.1777 37.4029C10.138 37.3805 10.0999 37.358 10.0637 37.3356Z" fill="white"/>
<path d="M28.9214 37.8476C29.0502 37.7829 29.1759 37.7188 29.2991 37.6515C29.2237 37.6933 29.1507 37.7323 29.0759 37.7721C29.025 37.7965 28.9723 37.8222 28.9214 37.8476Z" fill="white"/>
<path d="M35.8091 32.1395C35.7979 32.1564 35.7866 32.1724 35.7723 32.1898C35.7219 32.2565 35.6696 32.3209 35.6162 32.3856C35.6833 32.3041 35.7444 32.2231 35.8091 32.1395Z" fill="white"/>
</svg>
