<svg width="144" height="61" viewBox="0 0 144 61" fill="none" xmlns="http://www.w3.org/2000/svg">
<path d="M92.8675 20.8641C92.8675 28.8733 89.1776 32.8767 81.7978 32.8767C74.4179 32.8767 70.7288 28.8733 70.7288 20.8641V1.15955C70.7288 0.933616 70.8052 0.739401 70.961 0.576912C71.1161 0.414422 71.3128 0.333179 71.552 0.333179H73.8764C74.1016 0.333179 74.2953 0.414422 74.4573 0.576912C74.6185 0.739401 74.6995 0.933616 74.6995 1.15955V20.8641C74.6995 23.7873 75.2349 25.9593 76.3049 27.3791C77.3757 28.799 79.2064 29.5085 81.7978 29.5085C84.2757 29.5085 86.0786 28.8415 87.2057 27.506C88.3321 26.1713 88.896 23.9576 88.896 20.8641V1.15955C88.896 0.933616 88.9732 0.739401 89.1282 0.576912C89.2833 0.414422 89.48 0.333179 89.7199 0.333179H92.0436C92.2689 0.333179 92.4625 0.414422 92.6245 0.576912C92.7865 0.739401 92.8675 0.933616 92.8675 1.15955V20.8641Z" fill="white"/>
<path d="M112.133 18.5119L109.112 7.51599C108.492 5.2984 108.168 4.14705 108.141 4.06193C108.112 3.97759 108.063 3.88629 107.992 3.78725C107.922 3.68821 107.838 3.61006 107.739 3.55357C107.641 3.49786 107.52 3.46923 107.38 3.46923C107.225 3.46923 107.088 3.50405 106.968 3.57447C106.848 3.64565 106.753 3.73695 106.683 3.8507C106.612 3.96367 106.366 4.79004 105.944 6.32904L102.584 18.5119H112.133ZM101.761 21.945L98.9933 31.9451C98.937 32.171 98.8244 32.3335 98.6554 32.4326C98.4865 32.5316 98.3384 32.5811 98.2118 32.5811H95.656C95.163 32.5811 94.9169 32.3474 94.9169 31.8816C94.9169 31.7826 94.93 31.6836 94.9586 31.5853L102.965 3.34234C103.584 1.13867 105.056 0.0360683 107.38 0.0360683C109.675 0.0360683 111.133 1.12397 111.753 3.29978L119.76 31.5853C119.787 31.6418 119.801 31.7408 119.801 31.8816C119.801 32.3474 119.555 32.5811 119.061 32.5811H116.506C116.323 32.5811 116.168 32.5208 116.041 32.4008C115.915 32.2809 115.717 31.7331 115.449 30.7589L112.957 21.945H101.761Z" fill="white"/>
<path d="M130.754 16.0122L143.788 31.6275C143.929 31.7683 144 31.9455 144 32.1567C144 32.4391 143.809 32.5807 143.43 32.5807H140.07C139.662 32.5807 139.345 32.4391 139.12 32.1567L126.91 17.2619V31.7118C126.91 31.9385 126.835 32.1397 126.688 32.3153C126.54 32.4925 126.353 32.5807 126.128 32.5807H123.762C123.537 32.5807 123.35 32.4964 123.202 32.3262C123.054 32.1567 122.98 31.9524 122.98 31.7118V1.15995C122.98 0.947163 123.057 0.75682 123.213 0.586593C123.368 0.417914 123.564 0.332798 123.804 0.332798H126.085C126.311 0.332798 126.504 0.414818 126.666 0.577307C126.828 0.739796 126.91 0.934009 126.91 1.15995V15.1859L139.373 0.735929C139.627 0.467435 139.915 0.332798 140.24 0.332798H143.345C143.753 0.332798 143.957 0.495288 143.957 0.820267C143.957 0.975792 143.901 1.11739 143.788 1.24429L130.754 16.0122Z" fill="white"/>
<path d="M81.6173 60.0334C81.6173 60.3305 81.3874 60.5247 80.9268 60.6144C80.467 60.7042 79.7974 60.7499 78.9194 60.7499C77.1628 60.7499 75.9879 60.4125 75.3954 59.7386C74.8021 59.0646 74.5059 57.9481 74.5059 56.3874V45.0046L71.3151 44.6387C71.1354 44.6278 70.9934 44.5698 70.887 44.463C70.7813 44.357 70.7288 44.2239 70.7288 44.0653V43.1739C70.7288 42.7917 70.9348 42.6006 71.3475 42.6006H74.5059V39.4003C74.5059 39.2092 74.5638 39.0583 74.681 38.9469C74.7975 38.8355 75.059 38.7473 75.4664 38.6838C75.8737 38.6204 76.3104 38.5569 76.7763 38.4927H76.872C77.1991 38.4927 77.3634 38.6738 77.3634 39.0343V42.6006H80.8712C81.0518 42.6006 81.2053 42.6648 81.3318 42.7917C81.4591 42.9194 81.5224 43.0726 81.5224 43.2529V44.3516C81.5224 44.5326 81.4591 44.6859 81.3318 44.8135C81.2053 44.9404 81.0518 45.0046 80.8712 45.0046H77.3634V56.3874C77.3634 57.247 77.4853 57.8042 77.7283 58.0587C77.9713 58.3133 78.4373 58.441 79.1254 58.441H80.9345C81.3897 58.441 81.6173 58.5957 81.6173 58.9029V60.0334Z" fill="white"/>
<path d="M92.6654 44.2885C92.6654 44.6591 92.4371 44.8456 91.9819 44.8456C90.4907 44.8456 88.9925 45.3021 87.4905 46.2144V59.8743C87.4905 60.0437 87.4272 60.1954 87.2999 60.3277C87.1726 60.4608 87.0245 60.5266 86.8555 60.5266H85.2524C85.0935 60.5266 84.9508 60.4631 84.8235 60.3354C84.697 60.2085 84.633 60.0546 84.633 59.8743V43.2532C84.633 43.0621 84.6939 42.9058 84.8158 42.7835C84.9369 42.6613 85.0827 42.6001 85.2524 42.6001H86.7761C86.9558 42.6001 87.104 42.6613 87.2205 42.7835C87.3369 42.9058 87.3948 43.0621 87.3948 43.2532V43.938C88.8768 42.8864 90.4051 42.3618 91.9819 42.3618C92.4371 42.3618 92.6654 42.5583 92.6654 42.9506V44.2885Z" fill="white"/>
<path d="M105.332 57.1038V51.85H102.935C101.126 51.85 99.8455 52.0651 99.0941 52.4953C98.3419 52.9255 97.967 53.7767 97.967 55.0503V55.448C97.967 56.4779 98.1892 57.2284 98.6328 57.7004C99.0779 58.1739 99.8509 58.4092 100.951 58.4092C102.294 58.4092 103.755 57.9743 105.332 57.1038ZM108.205 59.8739C108.205 60.0542 108.139 60.2089 108.007 60.3358C107.874 60.4635 107.724 60.5269 107.554 60.5269H106.047C105.877 60.5269 105.729 60.4635 105.602 60.3358C105.475 60.2089 105.412 60.0542 105.412 59.8739V59.1574C103.602 60.219 101.93 60.7498 100.396 60.7498C98.6922 60.7498 97.3814 60.3072 96.4673 59.4205C95.5508 58.5345 95.0941 57.2207 95.0941 55.4797V55.0828C95.0941 53.2668 95.6943 51.932 96.8947 51.0786C98.0958 50.2236 100.109 49.7965 102.935 49.7965H105.332V48.4911C105.332 47.1432 105.075 46.1931 104.562 45.6414C104.048 45.0897 103.147 44.8135 101.856 44.8135C100.903 44.8135 100.019 44.8398 99.2052 44.8931L96.8877 45.068H96.7288C96.3369 45.068 96.1417 44.8931 96.1417 44.5434V43.413C96.1417 43.1793 96.2258 43.0145 96.3955 42.9193C96.5645 42.8233 97.1832 42.7073 98.2524 42.5688C99.3209 42.4311 100.523 42.3614 101.856 42.3614C106.088 42.3614 108.205 44.4049 108.205 48.4911V59.8739Z" fill="white"/>
<path d="M122.919 58.043V45.0996C122.084 44.9518 120.819 44.8767 119.126 44.8767C117.666 44.8767 116.597 45.3069 115.92 46.1666C115.242 47.0262 114.903 48.4221 114.903 50.3534V52.694C114.903 54.6787 115.239 56.1009 115.911 56.9613C116.583 57.8202 117.655 58.2504 119.126 58.2504C120.141 58.2504 121.406 58.1815 122.919 58.043ZM125.793 59.4443C125.793 59.7314 125.713 59.9325 125.555 60.0494C125.396 60.1662 124.65 60.3124 123.317 60.4865C121.983 60.6622 120.586 60.7496 119.126 60.7496C116.829 60.7496 115.073 60.0548 113.856 58.6643C112.639 57.2739 112.031 55.2838 112.031 52.694V50.3534C112.031 47.7427 112.631 45.7581 113.832 44.3993C115.033 43.0406 116.798 42.3613 119.126 42.3613C120.428 42.3613 121.692 42.4734 122.919 42.6963V36.63C122.919 36.4606 122.98 36.3143 123.102 36.1928C123.224 36.0706 123.369 36.0087 123.539 36.0087H125.206C125.597 36.0087 125.793 36.2161 125.793 36.63V59.4443Z" fill="white"/>
<path d="M141.095 50.2903V49.987C141.095 48.226 140.758 46.9338 140.086 46.1113C139.414 45.2888 138.333 44.8771 136.84 44.8771C133.942 44.8771 132.491 46.5802 132.491 49.987V50.2903H141.095ZM144 51.7551C144 52.2325 143.792 52.4708 143.381 52.4708H132.491V52.9327C132.491 54.7689 132.846 56.1144 133.555 56.9687C134.264 57.8229 135.412 58.25 136.999 58.25C137.635 58.25 138.307 58.2345 139.016 58.2028C139.725 58.1711 140.386 58.1285 140.999 58.0759L142.793 57.884H142.952C143.301 57.884 143.475 58.038 143.475 58.3459V59.4439C143.475 59.7418 143.391 59.9484 143.222 60.0652C143.052 60.1821 142.325 60.326 141.039 60.4947C139.753 60.6641 138.407 60.75 136.999 60.75C134.65 60.75 132.832 60.0892 131.547 58.7676C130.261 57.4461 129.618 55.5016 129.618 52.9327V49.987C129.618 47.6309 130.247 45.7716 131.507 44.4075C132.766 43.0441 134.544 42.3616 136.84 42.3616C139.126 42.3616 140.89 43.0333 142.135 44.375C143.377 45.7182 144 47.5892 144 49.987V51.7551Z" fill="white"/>
<path d="M55.43 13.5021C54.9857 13.4046 54.5151 13.3535 54.0206 13.3535H33.3962C30.9445 13.3535 28.7466 14.908 27.925 17.2231L19.0015 42.3215C17.8458 45.5751 15.148 47.8771 12.2898 48.0427C11.0446 48.1146 9.88897 47.7796 8.91461 47.0785C8.9015 47.07 8.89378 47.0615 8.88067 47.053C8.43167 46.7296 8.02511 46.3226 7.66561 45.8467C7.14873 45.1542 6.763 44.3518 6.52616 43.4852C6.5223 43.4643 6.51382 43.4465 6.50919 43.4256C6.0602 41.735 6.14043 39.8021 6.79694 37.959L17.9816 6.13358L18.0156 6.03144H18.0194L19.4258 2.01719C22.7917 0.713404 26.4469 0 30.2672 0C40.7437 0 49.9927 5.36834 55.43 13.5021Z" fill="white"/>
<path d="M14.7164 4.32353L12.9166 9.40325H12.912L12.8657 9.53944L3.62974 35.5292L3.22318 36.6806C2.54969 38.5755 2.30359 40.5199 2.46868 42.3685C0.881011 38.6854 0 34.6208 0 30.3566C0 19.3213 5.90324 9.63693 14.7164 4.32353Z" fill="white"/>
<path d="M60.5333 30.3563C60.5333 30.6789 60.5286 30.9977 60.5163 31.3157C60.4993 31.8813 60.47 32.4369 60.4191 32.9894C60.406 33.1387 60.3929 33.2911 60.3767 33.4443C60.3219 33.996 60.254 34.54 60.1645 35.0831C60.1313 35.3006 60.0974 35.5172 60.055 35.7292C60.0503 35.7671 60.0457 35.8058 60.0341 35.8399C59.9824 36.137 59.9238 36.4341 59.8598 36.7274C59.8127 36.9487 59.7626 37.1738 59.7078 37.3944C59.6901 37.4833 59.6692 37.577 59.6445 37.6706C59.589 37.8911 59.5335 38.1085 59.4702 38.3291C59.4571 38.3972 59.4362 38.4645 59.4154 38.5326C59.3599 38.7361 59.3005 38.9403 59.2372 39.1438C59.2164 39.2297 59.1909 39.3094 59.1616 39.3953C59.123 39.5268 59.0806 39.6545 59.0389 39.7814C58.9448 40.0661 58.8476 40.3501 58.7466 40.6349C58.6655 40.86 58.5853 41.0805 58.4958 41.3057C58.4071 41.5355 58.3145 41.7692 58.2166 41.999C58.1741 42.105 58.1278 42.2149 58.0808 42.3217C57.9882 42.5422 57.8902 42.7627 57.7892 42.9793C57.6704 43.2471 57.5431 43.5109 57.4166 43.774C57.2638 44.0843 57.1072 44.3899 56.9467 44.6909C56.9336 44.7126 56.9205 44.7296 56.9128 44.7513C56.7346 45.0739 56.5571 45.3927 56.3704 45.7068C56.1884 46.0163 56.0017 46.3228 55.8111 46.6237C55.8073 46.6323 55.8026 46.6369 55.798 46.6408C55.6036 46.951 55.4007 47.2528 55.1932 47.5546C55.1207 47.6598 55.0497 47.7619 54.9726 47.8687C54.8885 47.9964 54.7951 48.1194 54.7056 48.2425C54.6678 48.2935 54.6347 48.3446 54.5961 48.3949C54.549 48.4591 54.5035 48.5187 54.4518 48.5821C54.397 48.658 54.3376 48.7353 54.279 48.8119C54.181 48.9388 54.0884 49.0619 53.9866 49.1857C53.965 49.2151 53.9396 49.2406 53.9226 49.27C53.783 49.4534 53.6348 49.6267 53.4906 49.8054C53.4443 49.8565 53.4018 49.9114 53.3548 49.9625C53.2368 50.1064 53.1141 50.2511 52.9868 50.3919C52.885 50.5065 52.7831 50.6202 52.6813 50.7316C52.6566 50.7564 52.635 50.7866 52.6096 50.8121C52.5887 50.8376 52.5633 50.867 52.534 50.8926C52.4614 50.9777 52.3851 51.0628 52.3048 51.1433C52.2755 51.1773 52.2454 51.2067 52.2115 51.2408C52.1822 51.2748 52.1482 51.3089 52.1143 51.3429C51.9746 51.4915 51.8311 51.64 51.6823 51.7886C51.6313 51.8443 51.5812 51.8954 51.5257 51.9457C51.4709 52.0014 51.42 52.0524 51.3644 52.1027C51.2595 52.2095 51.1484 52.3116 51.0427 52.413C49.9634 53.4367 48.807 54.3845 47.5835 55.2419C47.3968 55.3695 47.2062 55.5011 47.0195 55.6288C46.6384 55.8787 46.2527 56.1255 45.8631 56.363C45.5707 56.5418 45.2752 56.712 44.979 56.8768C44.7877 56.9836 44.6018 57.0857 44.4112 57.1832C44.2245 57.2854 44.034 57.3829 43.8388 57.4811C43.6104 57.5995 43.3782 57.714 43.1452 57.8247C42.8359 57.9694 42.5219 58.1133 42.2048 58.2495C41.9934 58.3431 41.7813 58.4321 41.5653 58.5172C40.9257 58.7756 40.2731 59.0139 39.6127 59.2298C39.3928 59.3026 39.1683 59.3706 38.9485 59.4387C38.741 59.5022 38.5327 59.5618 38.3259 59.6213C38.2827 59.6299 38.241 59.643 38.194 59.6554C37.9949 59.7065 37.7959 59.7614 37.5976 59.8078C37.394 59.8635 37.1865 59.91 36.9836 59.9572C36.9026 59.9734 36.8269 59.9951 36.7459 60.0074C36.5724 60.05 36.3988 60.084 36.2252 60.1181C35.7639 60.2117 35.2979 60.2961 34.8281 60.3642C34.5565 60.4075 34.2819 60.4454 34.0057 60.4794C33.8067 60.505 33.6123 60.5259 33.4132 60.5475C32.4643 60.645 31.5031 60.7 30.5287 60.7092C30.4446 60.7123 30.3559 60.7123 30.2672 60.7123C28.8693 60.7123 27.4969 60.6195 26.1507 60.4284C25.5188 60.3394 24.897 60.2373 24.2829 60.1096C24.1302 60.0802 23.9736 60.05 23.8208 60.016C23.6689 59.9819 23.5161 59.9479 23.3634 59.91C22.7539 59.7699 22.1529 59.609 21.5597 59.4302C20.9626 59.2476 20.3778 59.0519 19.7977 58.8398C19.5099 58.7292 19.2221 58.6186 18.9382 58.504C18.7307 58.4197 18.5232 58.3338 18.3157 58.2448C17.3243 57.8162 16.3592 57.3318 15.4273 56.8056C15.4574 56.8219 15.4867 56.8397 15.5207 56.8521C15.4319 56.801 15.3432 56.7538 15.2545 56.7035C15.1943 56.6695 15.1349 56.6354 15.0802 56.6014C14.652 56.3553 14.2292 56.0915 13.8142 55.8199C13.6236 55.6968 13.4331 55.5692 13.2464 55.4415C13.0605 55.3146 12.8745 55.1823 12.6871 55.0508C12.4849 54.9068 12.2851 54.7575 12.0861 54.6097C11.7389 54.3459 11.4003 54.0781 11.0655 53.8027C10.4267 53.2757 9.80797 52.7233 9.21471 52.1414C9.15531 52.0865 9.10054 52.0315 9.04577 51.9758C8.79195 51.7251 8.54123 51.4706 8.30053 51.2114C8.2365 51.1433 8.17786 51.0752 8.10998 51.0071C8.21567 51.0543 8.32599 51.1046 8.43631 51.1471C8.51191 51.1858 8.59292 51.2152 8.67238 51.2454C8.78732 51.2926 8.9015 51.3344 9.0203 51.3723C9.95223 51.6957 10.9389 51.8613 11.9588 51.8613C12.1409 51.8613 12.3276 51.8567 12.5143 51.8443C12.8568 51.8226 13.1916 51.7847 13.5303 51.7251H13.5349C17.4941 51.0582 21.0467 47.9074 22.5803 43.5999L31.4984 18.5015C31.787 17.6991 32.5453 17.159 33.3963 17.159H54.0206C54.6254 17.159 55.0744 17.3084 55.2819 17.5753C55.4555 17.8005 55.464 18.1069 55.4084 18.3143C55.3629 18.5139 55.1724 18.7182 54.9008 18.8961C54.8885 18.9046 54.8707 18.9178 54.8545 18.9263C54.3793 19.2188 53.6765 19.4362 53.0369 19.4362H46.8421C44.6056 19.4408 42.5736 20.8506 41.7813 22.9529L34.7263 41.7777C33.3662 41.9518 32.1982 42.8733 31.7276 44.1903L28.3185 53.7431H37.0298L39.5494 46.6841C40.0956 45.1497 39.5749 43.5697 38.4655 42.6234L45.3385 24.2954C45.5707 23.6663 46.1771 23.2462 46.8459 23.2462L53.0369 23.2423C54.0962 23.2423 55.2225 22.9955 56.2223 22.515C56.2347 22.5065 56.2516 22.5026 56.2648 22.4941C57.3317 21.9757 58.2466 21.1857 58.7674 20.1326C59.9107 23.3313 60.5333 26.7714 60.5333 30.3563Z" fill="white"/>
<path d="M8.10998 51.0071C8.17786 51.0752 8.2365 51.1433 8.30053 51.2114C8.22801 51.1433 8.16487 51.0709 8.09698 50.999L8.1101 51.0028L8.10998 51.0071Z" fill="white"/>
<path d="M12.6871 55.0508C12.8745 55.1823 13.0605 55.3146 13.2464 55.4415C13.1361 55.3695 13.0309 55.2968 12.9252 55.221C12.8442 55.1652 12.7673 55.1057 12.6871 55.0508Z" fill="white"/>
<path d="M13.2464 55.4415C13.4331 55.5692 13.6236 55.6968 13.8142 55.8199C13.6869 55.7394 13.5643 55.6581 13.437 55.5737C13.3737 55.5304 13.3104 55.4887 13.2464 55.4415Z" fill="white"/>
<path d="M15.2545 56.7035C15.3432 56.7538 15.4319 56.801 15.5207 56.8521C15.4867 56.8397 15.4574 56.8219 15.4273 56.8056C15.3671 56.7716 15.3093 56.7375 15.2545 56.7035Z" fill="white"/>
<path d="M43.8388 57.4811C44.034 57.3829 44.2245 57.2854 44.4112 57.1832C44.297 57.2467 44.1864 57.306 44.073 57.3664C43.9958 57.4035 43.9159 57.4424 43.8388 57.4811Z" fill="white"/>
<path d="M54.279 48.8119C54.262 48.8375 54.2449 48.8619 54.2233 48.8882C54.1469 48.9896 54.0676 49.0874 53.9866 49.1857C54.0884 49.0619 54.181 48.9388 54.279 48.8119Z" fill="white"/>
</svg>
