<svg width="24" height="24" viewBox="0 0 24 24" fill="none" xmlns="http://www.w3.org/2000/svg">
<path d="M22.3449 0C23.2552 1.09244e-05 24 0.744839 24 1.65514V22.3449C24 23.2552 23.2552 24 22.3449 24H15.7242V15.7242H19.8621V11.5862H15.7242V9.10345C15.7242 8.6483 16.0966 8.27586 16.5518 8.27586H20.2759V4.13795L16.138 4.13791C13.5724 4.34482 11.5862 6.4965 11.5862 9.10341V11.5862H8.27586V15.7241H11.5862V24H1.65514C0.744839 24 1.0925e-05 23.2552 0 22.3449V1.65514C1.10219e-05 0.74484 0.74484 1.10226e-05 1.65514 0H22.3449Z" fill="white"/>
</svg>
