<svg width="1278" height="580" viewBox="0 0 1278 580" fill="none" xmlns="http://www.w3.org/2000/svg">
<mask id="path-1-inside-1_66_1242" fill="white">
<path d="M639 0C799.163 0 929 129.837 929 290C929 450.163 799.163 580 639 580C478.837 580 349 450.163 349 290C349 129.837 478.837 0 639 0ZM71 380C69.2328 379.372 67.4798 378.697 65.7441 377.974C52.823 372.59 41.0818 364.699 31.1924 354.751C21.3032 344.803 13.4585 332.993 8.10645 319.996C2.75445 306.999 3.07473e-06 293.068 0 279C-1.22166e-06 264.932 2.75445 251.001 8.10645 238.004C13.4585 225.007 21.3032 213.197 31.1924 203.249C41.0818 193.301 52.823 185.41 65.7441 180.026C67.4798 179.303 69.2328 178.628 71 178V380ZM166 380C164.233 379.372 162.48 378.697 160.744 377.974C147.823 372.59 136.082 364.699 126.192 354.751C116.303 344.803 108.459 332.993 103.106 319.996C97.7544 306.999 95 293.068 95 279C95 264.932 97.7544 251.001 103.106 238.004C108.459 225.007 116.303 213.197 126.192 203.249C136.082 193.301 147.823 185.41 160.744 180.026C162.48 179.303 164.233 178.628 166 178V380ZM1112 178C1113.77 178.628 1115.52 179.303 1117.26 180.026C1130.18 185.41 1141.92 193.301 1151.81 203.249C1161.7 213.197 1169.54 225.007 1174.89 238.004C1180.25 251.001 1183 264.932 1183 279C1183 293.068 1180.25 306.999 1174.89 319.996C1169.54 332.993 1161.7 344.803 1151.81 354.751C1141.92 364.699 1130.18 372.59 1117.26 377.974C1115.52 378.697 1113.77 379.372 1112 380V178ZM1207 178C1208.77 178.628 1210.52 179.303 1212.26 180.026C1225.18 185.41 1236.92 193.301 1246.81 203.249C1256.7 213.197 1264.54 225.007 1269.89 238.004C1275.25 251.001 1278 264.932 1278 279C1278 293.068 1275.25 306.999 1269.89 319.996C1264.54 332.993 1256.7 344.803 1246.81 354.751C1236.92 364.699 1225.18 372.59 1212.26 377.974C1210.52 378.697 1208.77 379.372 1207 380V178Z"/>
</mask>
<path d="M639 0C799.163 0 929 129.837 929 290C929 450.163 799.163 580 639 580C478.837 580 349 450.163 349 290C349 129.837 478.837 0 639 0ZM71 380C69.2328 379.372 67.4798 378.697 65.7441 377.974C52.823 372.59 41.0818 364.699 31.1924 354.751C21.3032 344.803 13.4585 332.993 8.10645 319.996C2.75445 306.999 3.07473e-06 293.068 0 279C-1.22166e-06 264.932 2.75445 251.001 8.10645 238.004C13.4585 225.007 21.3032 213.197 31.1924 203.249C41.0818 193.301 52.823 185.41 65.7441 180.026C67.4798 179.303 69.2328 178.628 71 178V380ZM166 380C164.233 379.372 162.48 378.697 160.744 377.974C147.823 372.59 136.082 364.699 126.192 354.751C116.303 344.803 108.459 332.993 103.106 319.996C97.7544 306.999 95 293.068 95 279C95 264.932 97.7544 251.001 103.106 238.004C108.459 225.007 116.303 213.197 126.192 203.249C136.082 193.301 147.823 185.41 160.744 180.026C162.48 179.303 164.233 178.628 166 178V380ZM1112 178C1113.77 178.628 1115.52 179.303 1117.26 180.026C1130.18 185.41 1141.92 193.301 1151.81 203.249C1161.7 213.197 1169.54 225.007 1174.89 238.004C1180.25 251.001 1183 264.932 1183 279C1183 293.068 1180.25 306.999 1174.89 319.996C1169.54 332.993 1161.7 344.803 1151.81 354.751C1141.92 364.699 1130.18 372.59 1117.26 377.974C1115.52 378.697 1113.77 379.372 1112 380V178ZM1207 178C1208.77 178.628 1210.52 179.303 1212.26 180.026C1225.18 185.41 1236.92 193.301 1246.81 203.249C1256.7 213.197 1264.54 225.007 1269.89 238.004C1275.25 251.001 1278 264.932 1278 279C1278 293.068 1275.25 306.999 1269.89 319.996C1264.54 332.993 1256.7 344.803 1246.81 354.751C1236.92 364.699 1225.18 372.59 1212.26 377.974C1210.52 378.697 1208.77 379.372 1207 380V178Z" fill="#191919"/>
<path d="M71 380L70.6649 380.942L72 381.417V380H71ZM65.7441 377.974L65.3595 378.897V378.897L65.7441 377.974ZM31.1924 354.751L30.4832 355.456H30.4832L31.1924 354.751ZM8.10645 319.996L7.18177 320.377H7.18178L8.10645 319.996ZM0 279H-1V279H0ZM8.10645 238.004L7.18178 237.623H7.18177L8.10645 238.004ZM31.1924 203.249L30.4832 202.544H30.4832L31.1924 203.249ZM65.7441 180.026L65.3595 179.103H65.3595L65.7441 180.026ZM71 178H72V176.583L70.6649 177.058L71 178ZM166 380L165.665 380.942L167 381.417V380H166ZM160.744 377.974L160.36 378.897L160.36 378.897L160.744 377.974ZM126.192 354.751L125.483 355.456V355.456L126.192 354.751ZM103.106 319.996L102.182 320.377H102.182L103.106 319.996ZM95 279H94V279H95ZM103.106 238.004L102.182 237.623H102.182L103.106 238.004ZM126.192 203.249L125.483 202.544V202.544L126.192 203.249ZM160.744 180.026L160.36 179.103H160.36L160.744 180.026ZM166 178H167V176.583L165.665 177.058L166 178ZM1112 178L1112.34 177.058L1111 176.583V178H1112ZM1117.26 180.026L1117.64 179.103V179.103L1117.26 180.026ZM1151.81 203.249L1152.52 202.544V202.544L1151.81 203.249ZM1174.89 238.004L1175.82 237.623V237.623L1174.89 238.004ZM1183 279H1184V279H1183ZM1174.89 319.996L1175.82 320.377V320.377L1174.89 319.996ZM1151.81 354.751L1152.52 355.456V355.456L1151.81 354.751ZM1117.26 377.974L1117.64 378.897V378.897L1117.26 377.974ZM1112 380H1111V381.417L1112.34 380.942L1112 380ZM1207 178L1207.34 177.058L1206 176.583V178H1207ZM1212.26 180.026L1212.64 179.103V179.103L1212.26 180.026ZM1246.81 203.249L1247.52 202.544V202.544L1246.81 203.249ZM1269.89 238.004L1270.82 237.623V237.623L1269.89 238.004ZM1278 279H1279V279H1278ZM1269.89 319.996L1270.82 320.377V320.377L1269.89 319.996ZM1246.81 354.751L1247.52 355.456V355.456L1246.81 354.751ZM1212.26 377.974L1212.64 378.897V378.897L1212.26 377.974ZM1207 380H1206V381.417L1207.34 380.942L1207 380ZM639 0V1C798.61 1 928 130.39 928 290H929H930C930 129.285 799.715 -1 639 -1V0ZM929 290H928C928 449.61 798.61 579 639 579V580V581C799.715 581 930 450.715 930 290H929ZM639 580V579C479.39 579 350 449.61 350 290H349H348C348 450.715 478.285 581 639 581V580ZM349 290H350C350 130.39 479.39 1 639 1V0V-1C478.285 -1 348 129.285 348 290H349ZM71 380L71.3351 379.058C69.5841 378.435 67.8476 377.767 66.1287 377.051L65.7441 377.974L65.3595 378.897C67.112 379.627 68.8815 380.308 70.6649 380.942L71 380ZM65.7441 377.974L66.1287 377.051C53.3294 371.718 41.6984 363.901 31.9016 354.046L31.1924 354.751L30.4832 355.456C40.4652 365.497 52.3167 373.462 65.3595 378.897L65.7441 377.974ZM31.1924 354.751L31.9016 354.046C22.1049 344.191 14.3334 332.492 9.03112 319.615L8.10645 319.996L7.18178 320.377C12.5836 333.495 20.5014 345.415 30.4832 355.456L31.1924 354.751ZM8.10645 319.996L9.03112 319.615C3.72891 306.739 1 292.938 1 279H0H-1C-0.999997 293.199 1.77999 307.259 7.18177 320.377L8.10645 319.996ZM0 279H1C0.999999 265.062 3.7289 251.261 9.03112 238.385L8.10645 238.004L7.18177 237.623C1.77999 250.741 -1 264.801 -1 279H0ZM8.10645 238.004L9.03112 238.385C14.3334 225.508 22.1049 213.809 31.9016 203.954L31.1924 203.249L30.4832 202.544C20.5014 212.585 12.5836 224.505 7.18178 237.623L8.10645 238.004ZM31.1924 203.249L31.9016 203.954C41.6984 194.099 53.3294 186.282 66.1288 180.949L65.7441 180.026L65.3595 179.103C52.3167 184.538 40.4652 192.503 30.4832 202.544L31.1924 203.249ZM65.7441 180.026L66.1287 180.949C67.8476 180.233 69.5841 179.565 71.3351 178.942L71 178L70.6649 177.058C68.8815 177.692 67.112 178.373 65.3595 179.103L65.7441 180.026ZM71 178H70V380H71H72V178H71ZM166 380L166.335 379.058C164.584 378.435 162.848 377.767 161.129 377.051L160.744 377.974L160.36 378.897C162.112 379.627 163.882 380.308 165.665 380.942L166 380ZM160.744 377.974L161.129 377.051C148.329 371.718 136.698 363.901 126.902 354.046L126.192 354.751L125.483 355.456C135.465 365.497 147.317 373.462 160.36 378.897L160.744 377.974ZM126.192 354.751L126.902 354.046C117.105 344.191 109.333 332.492 104.031 319.615L103.106 319.996L102.182 320.377C107.584 333.495 115.501 345.415 125.483 355.456L126.192 354.751ZM103.106 319.996L104.031 319.615C98.7289 306.739 96 292.938 96 279H95H94C94 293.199 96.78 307.259 102.182 320.377L103.106 319.996ZM95 279H96C96 265.062 98.7289 251.261 104.031 238.385L103.106 238.004L102.182 237.623C96.78 250.741 94 264.801 94 279H95ZM103.106 238.004L104.031 238.385C109.333 225.508 117.105 213.809 126.902 203.954L126.192 203.249L125.483 202.544C115.501 212.585 107.584 224.505 102.182 237.623L103.106 238.004ZM126.192 203.249L126.902 203.954C136.698 194.099 148.329 186.282 161.129 180.949L160.744 180.026L160.36 179.103C147.317 184.538 135.465 192.503 125.483 202.544L126.192 203.249ZM160.744 180.026L161.129 180.949C162.848 180.233 164.584 179.565 166.335 178.942L166 178L165.665 177.058C163.882 177.692 162.112 178.373 160.36 179.103L160.744 180.026ZM166 178H165V380H166H167V178H166ZM1112 178L1111.66 178.942C1113.42 179.565 1115.15 180.233 1116.87 180.949L1117.26 180.026L1117.64 179.103C1115.89 178.373 1114.12 177.692 1112.34 177.058L1112 178ZM1117.26 180.026L1116.87 180.949C1129.67 186.282 1141.3 194.099 1151.1 203.954L1151.81 203.249L1152.52 202.544C1142.53 192.503 1130.68 184.538 1117.64 179.103L1117.26 180.026ZM1151.81 203.249L1151.1 203.954C1160.9 213.809 1168.67 225.508 1173.97 238.385L1174.89 238.004L1175.82 237.623C1170.42 224.505 1162.5 212.585 1152.52 202.544L1151.81 203.249ZM1174.89 238.004L1173.97 238.385C1179.27 251.261 1182 265.062 1182 279H1183H1184C1184 264.801 1181.22 250.741 1175.82 237.623L1174.89 238.004ZM1183 279H1182C1182 292.938 1179.27 306.739 1173.97 319.615L1174.89 319.996L1175.82 320.377C1181.22 307.259 1184 293.199 1184 279H1183ZM1174.89 319.996L1173.97 319.615C1168.67 332.492 1160.9 344.191 1151.1 354.046L1151.81 354.751L1152.52 355.456C1162.5 345.415 1170.42 333.495 1175.82 320.377L1174.89 319.996ZM1151.81 354.751L1151.1 354.046C1141.3 363.901 1129.67 371.718 1116.87 377.051L1117.26 377.974L1117.64 378.897C1130.68 373.462 1142.53 365.497 1152.52 355.456L1151.81 354.751ZM1117.26 377.974L1116.87 377.051C1115.15 377.767 1113.42 378.435 1111.66 379.058L1112 380L1112.34 380.942C1114.12 380.308 1115.89 379.627 1117.64 378.897L1117.26 377.974ZM1112 380H1113V178H1112H1111V380H1112ZM1207 178L1206.66 178.942C1208.42 179.565 1210.15 180.233 1211.87 180.949L1212.26 180.026L1212.64 179.103C1210.89 178.373 1209.12 177.692 1207.34 177.058L1207 178ZM1212.26 180.026L1211.87 180.949C1224.67 186.282 1236.3 194.099 1246.1 203.954L1246.81 203.249L1247.52 202.544C1237.53 192.503 1225.68 184.538 1212.64 179.103L1212.26 180.026ZM1246.81 203.249L1246.1 203.954C1255.9 213.809 1263.67 225.508 1268.97 238.385L1269.89 238.004L1270.82 237.623C1265.42 224.505 1257.5 212.585 1247.52 202.544L1246.81 203.249ZM1269.89 238.004L1268.97 238.385C1274.27 251.261 1277 265.062 1277 279H1278H1279C1279 264.801 1276.22 250.741 1270.82 237.623L1269.89 238.004ZM1278 279H1277C1277 292.938 1274.27 306.739 1268.97 319.615L1269.89 319.996L1270.82 320.377C1276.22 307.259 1279 293.199 1279 279H1278ZM1269.89 319.996L1268.97 319.615C1263.67 332.492 1255.9 344.191 1246.1 354.046L1246.81 354.751L1247.52 355.456C1257.5 345.415 1265.42 333.495 1270.82 320.377L1269.89 319.996ZM1246.81 354.751L1246.1 354.046C1236.3 363.901 1224.67 371.718 1211.87 377.051L1212.26 377.974L1212.64 378.897C1225.68 373.462 1237.53 365.497 1247.52 355.456L1246.81 354.751ZM1212.26 377.974L1211.87 377.051C1210.15 377.767 1208.42 378.435 1206.66 379.058L1207 380L1207.34 380.942C1209.12 380.308 1210.89 379.627 1212.64 378.897L1212.26 377.974ZM1207 380H1208V178H1207H1206V380H1207Z" fill="url(#paint0_linear_66_1242)" fill-opacity="0.3" mask="url(#path-1-inside-1_66_1242)"/>
<defs>
<linearGradient id="paint0_linear_66_1242" x1="639" y1="0" x2="639" y2="580" gradientUnits="userSpaceOnUse">
<stop stop-color="white"/>
<stop offset="1" stop-color="#191919"/>
</linearGradient>
</defs>
</svg>
