<svg width="24" height="24" viewBox="0 0 24 24" fill="none" xmlns="http://www.w3.org/2000/svg">
<path d="M19.0137 0C21.7675 0.000153829 23.9998 2.2325 24 4.98633V19.0137C23.9998 21.7675 21.7675 23.9998 19.0137 24H4.98633C2.2325 23.9998 0.000153827 21.7675 0 19.0137V4.98633C0.000159498 2.23251 2.23251 0.000159495 4.98633 0H19.0137ZM18.7998 14.542C20.842 8.62245 15.3776 3.15804 9.45801 5.2002C7.46289 5.88838 5.88838 7.46289 5.2002 9.45801C3.1579 15.3775 8.6225 20.8421 14.542 18.7998C16.5373 18.1116 18.1116 16.5371 18.7998 14.542ZM12 7.2002C14.6469 7.2002 16.7998 9.35314 16.7998 12C16.7998 14.6469 14.6469 16.7998 12 16.7998C9.35314 16.7998 7.2002 14.6469 7.2002 12C7.2002 9.35314 9.35314 7.2002 12 7.2002ZM19.8711 3.78418C19.6557 3.65959 19.4043 3.62582 19.1641 3.69043C18.9234 3.75488 18.7222 3.90923 18.5977 4.125C18.4218 4.42981 18.4278 4.80569 18.6348 5.12207C18.6493 5.14464 18.666 5.16627 18.6836 5.18652C18.8841 5.41665 19.1464 5.52344 19.4033 5.52344C19.8254 5.52344 20.2339 5.23624 20.3281 4.74316C20.3331 4.71768 20.3354 4.69082 20.3369 4.66504C20.3576 4.28827 20.1758 3.95996 19.8711 3.78418Z" fill="white"/>
</svg>
