<svg width="38" height="38" viewBox="0 0 38 38" fill="none" xmlns="http://www.w3.org/2000/svg">
<path d="M19 0C15.2422 -4.48119e-08 11.5687 1.11433 8.44417 3.20208C5.31963 5.28982 2.88435 8.25722 1.44629 11.729C0.00822388 15.2008 -0.36804 19.0211 0.36508 22.7067C1.0982 26.3924 2.90777 29.7778 5.56497 32.435C8.22217 35.0922 11.6076 36.9018 15.2933 37.6349C18.9789 38.368 22.7992 37.9918 26.271 36.5537C29.7428 35.1156 32.7102 32.6804 34.7979 29.5558C36.8857 26.4313 38 22.7578 38 19H30.4C30.4 21.2547 29.7314 23.4588 28.4788 25.3335C27.2261 27.2082 25.4457 28.6694 23.3626 29.5322C21.2795 30.3951 18.9874 30.6208 16.776 30.181C14.5646 29.7411 12.5333 28.6553 10.939 27.061C9.34466 25.4667 8.25892 23.4354 7.81905 21.224C7.37918 19.0126 7.60493 16.7205 8.46777 14.6374C9.33061 12.5543 10.7918 10.7739 12.6665 9.52125C14.5412 8.2686 16.7453 7.6 19 7.6V0Z" fill="#E9FFBC"/>
</svg>
