<svg width="24" height="24" viewBox="0 0 24 24" fill="none" xmlns="http://www.w3.org/2000/svg">
<path fill-rule="evenodd" clip-rule="evenodd" d="M11.9946 0C15.1785 0.000106531 18.2323 1.26443 20.4837 3.51475C22.735 5.76515 24 8.81752 24 12C24 15.1825 22.735 18.2348 20.4837 20.4852C18.2323 22.7355 15.1785 23.9999 11.9946 24C9.64628 24.0044 7.34859 23.3146 5.39152 22.0173L0.778387 23.4932L2.27933 19.0348C0.983004 17.2442 0.206714 15.1303 0.0358722 12.9267C-0.134873 10.7233 0.306168 8.5157 1.31088 6.54709C2.31571 4.57838 3.84486 2.92474 5.7299 1.76957C7.61504 0.614412 9.78342 0.00194478 11.9946 0ZM8.10807 5.58649C7.78798 5.58659 7.47925 5.70611 7.24357 5.9226L6.02584 7.14613C4.80878 8.42629 6.15487 11.8199 9.16986 14.8309C12.185 17.8418 15.575 19.248 16.8559 17.9745L18.0737 16.7574C18.2864 16.5225 18.4046 16.2164 18.4046 15.8996C18.4046 15.5829 18.2863 15.2777 18.0737 15.0429L16.2821 13.214C16.1398 13.0643 15.961 12.9539 15.7634 12.8938C15.5659 12.8338 15.356 12.8264 15.1545 12.8715C14.953 12.9167 14.7666 13.0138 14.6136 13.1525C14.4607 13.2911 14.3463 13.4666 14.2815 13.6625C14.1793 13.9392 13.9795 14.17 13.7204 14.3113C13.4614 14.4525 13.1599 14.495 12.8718 14.4312C11.5885 14.1111 9.85924 12.4315 9.539 11.103C9.46077 10.8141 9.49761 10.506 9.64083 10.2431C9.78405 9.98033 10.0228 9.7829 10.308 9.69181C10.5006 9.62704 10.6731 9.51343 10.8098 9.36313C10.9463 9.21293 11.0426 9.03062 11.0887 8.833C11.1348 8.6352 11.13 8.4281 11.0739 8.2329C11.0178 8.03793 10.9123 7.86068 10.7684 7.71761L8.97363 5.9226C8.73786 5.70598 8.4283 5.58652 8.10807 5.58649Z" fill="white"/>
</svg>
